<?xml version="1.0" encoding="UTF-8"?>
<svg version="1.1" xmlns="http://www.w3.org/2000/svg" width="1242" height="2688">
<path d="M0 0 C409.86 0 819.72 0 1242 0 C1242 887.04 1242 1774.08 1242 2688 C832.14 2688 422.28 2688 0 2688 C0 1800.96 0 913.92 0 0 Z " fill="#FEFEFE" transform="translate(0,0)"/>
<path d="M0 0 C15.51 0 31.02 0 47 0 C47 4.62 47 9.24 47 14 C53.6 14 60.2 14 67 14 C67 18.29 67 22.58 67 27 C73.6 27 80.2 27 87 27 C87 42.51 87 58.02 87 74 C90.3 74 93.6 74 97 74 C94.89380842 97.75301493 91.99397613 121.33333152 89 145 C86.525 166.285 86.525 166.285 84 188 C44.07 188 4.14 188 -37 188 C-41.64968084 150.02760649 -46.25952761 112.06975343 -50 74 C-46.7 74 -43.4 74 -40 74 C-40 58.49 -40 42.98 -40 27 C-33.4 27 -26.8 27 -20 27 C-20 22.71 -20 18.42 -20 14 C-13.4 14 -6.8 14 0 14 C0 9.38 0 4.76 0 0 Z " fill="#A096AF" transform="translate(598,1217)"/>
<path d="M0 0 C1.46952963 -0.00735162 2.9390535 -0.01594101 4.40856934 -0.02566528 C8.37777548 -0.04777659 12.34677338 -0.05081717 16.31603265 -0.04891777 C19.64074083 -0.04879757 22.96540567 -0.05738184 26.29010171 -0.06569529 C34.14053376 -0.08489249 41.99085951 -0.08782685 49.84130859 -0.08105469 C57.91381811 -0.07441852 65.98587018 -0.09726946 74.05828696 -0.13436842 C81.01234052 -0.16515656 87.96624763 -0.17641556 94.9203679 -0.1725316 C99.06342413 -0.17047327 103.20612429 -0.17580028 107.34911537 -0.20042419 C111.24902273 -0.22284002 115.14819129 -0.22069218 119.04810333 -0.20049667 C120.47018964 -0.19711247 121.89232716 -0.2020626 123.31434441 -0.21648026 C134.67099953 -0.32357749 144.3432436 1.39926429 152.86987305 9.35742188 C155.14966616 11.82797319 156.36773246 13.55638663 157.74487305 16.66992188 C159.84316392 20.3629138 162.17705822 20.91233406 166.0222168 22.43164062 C170.43677575 24.34084304 173.33251081 27.08761015 176.18237305 30.98242188 C178.19962293 37.14624097 178.18081153 43.5266569 176.30737305 49.73242188 C173.14060788 53.98776257 169.4264183 58.42323448 164.22924805 60.08398438 C162.30737305 60.35742188 162.30737305 60.35742188 159.30737305 60.41992188 C159.63737305 61.22429688 159.96737305 62.02867187 160.30737305 62.85742188 C162.68740864 71.33629866 161.21831181 78.58647353 157.30737305 86.41992188 C151.99568044 94.5250694 144.45425208 98.73738005 135.30737305 101.41992188 C132.26723766 101.67439747 132.26723766 101.67439747 128.98979187 101.68061829 C127.74084137 101.68770309 126.49189087 101.6947879 125.20509338 101.7020874 C123.83383142 101.6997939 122.46256981 101.69728425 121.09130859 101.69458008 C119.63706196 101.69893068 118.18281762 101.70411498 116.72857666 101.71006775 C112.78834475 101.72343353 108.8482089 101.72403898 104.90795875 101.72150445 C101.61295295 101.72043281 98.31796643 101.72532318 95.02296478 101.73010987 C87.24511282 101.74119729 79.46730916 101.74164717 71.68945312 101.7355957 C63.68011343 101.72955965 55.67094957 101.74185927 47.66163987 101.76316577 C40.77310117 101.78081334 33.88461827 101.78677805 26.99605781 101.78352803 C22.88723806 101.78171961 18.77854367 101.78430687 14.66974449 101.79824257 C10.80286974 101.8108673 6.93626779 101.80883323 3.06939697 101.79583168 C1.65573342 101.79347619 0.24205039 101.7961635 -1.17159081 101.8044548 C-12.88831517 101.86818305 -21.92550807 100.59516776 -30.69262695 92.41992188 C-37.11085434 85.53702644 -40.24553659 77.94471086 -39.9309082 68.50585938 C-39.6030913 65.63611794 -38.78565878 63.08418695 -37.69262695 60.41992188 C-38.68262695 60.39929688 -39.67262695 60.37867188 -40.69262695 60.35742188 C-45.9490702 59.60955393 -49.20271556 56.19279905 -52.69262695 52.41992188 C-56.66972076 47.07570207 -56.57645172 40.82554706 -55.69262695 34.41992188 C-53.49258124 28.46513147 -49.24631565 24.36300746 -43.69262695 21.41992188 C-42.66137695 21.15179687 -41.63012695 20.88367188 -40.56762695 20.60742188 C-37.33696453 19.27301783 -37.03608526 18.70556531 -35.38012695 15.79492188 C-31.22628866 8.50911605 -25.46611908 3.6074859 -17.50486183 1.0536499 C-11.74979428 -0.24323594 -5.87081555 -0.01395448 0 0 Z " fill="#A197B0" transform="translate(560.692626953125,959.580078125)"/>
<path d="M0 0 C2.49845191 1.92876019 4.88217957 3.93292976 7.24609375 6.0234375 C8.14714844 6.78333984 8.14714844 6.78333984 9.06640625 7.55859375 C18.32116347 15.97396601 25.40148368 28.24297192 29.24609375 40.0234375 C29.63341675 41.18649414 29.63341675 41.18649414 30.02856445 42.37304688 C32.26768195 49.67678769 32.67019478 56.41671115 32.55859375 64.0234375 C32.56181641 65.12171875 32.56503906 66.22 32.56835938 67.3515625 C32.5026946 77.42812087 31.34432521 86.75212838 27.12109375 95.9609375 C26.8176001 96.63697021 26.51410645 97.31300293 26.20141602 98.00952148 C23.2059246 104.46938373 19.49083718 110.30800495 15.24609375 116.0234375 C14.78976562 116.66410156 14.3334375 117.30476563 13.86328125 117.96484375 C3.5247192 131.30592233 -15.6849007 141.99825158 -32.2578125 144.56640625 C-57.59428691 147.5074038 -78.20907852 143.43228632 -98.44140625 127.8359375 C-111.57159763 116.52080199 -121.55583862 102.03665893 -125.75390625 85.0234375 C-125.95628906 84.23582031 -126.15867187 83.44820312 -126.3671875 82.63671875 C-128.88825919 71.16327006 -128.92696688 58.3557969 -125.75390625 47.0234375 C-125.49738281 46.02183594 -125.24085938 45.02023437 -124.9765625 43.98828125 C-119.58899652 24.5884192 -107.06597726 7.06106187 -89.6875 -3.3515625 C-60.84272712 -19.32949262 -27.48707628 -19.7283129 0 0 Z " fill="#FDFDFD" transform="translate(735.75390625,1579.9765625)"/>
<path d="M0 0 C0.81276398 0.00565979 1.62552795 0.01131958 2.46292114 0.01715088 C5.04100195 0.03941662 7.61765681 0.08959185 10.1953125 0.140625 C11.95050066 0.1607028 13.70571076 0.17895133 15.4609375 0.1953125 C19.74837772 0.23583651 24.03276253 0.31413749 28.3203125 0.390625 C28.3203125 6.990625 28.3203125 13.590625 28.3203125 20.390625 C19.4103125 20.390625 10.5003125 20.390625 1.3203125 20.390625 C1.3203125 29.300625 1.3203125 38.210625 1.3203125 47.390625 C17.1603125 47.390625 33.0003125 47.390625 49.3203125 47.390625 C55.3203125 65.390625 55.3203125 65.390625 55.3203125 67.390625 C52.6803125 67.390625 50.0403125 67.390625 47.3203125 67.390625 C47.33184325 68.12113445 47.343374 68.85164391 47.35525417 69.60429001 C47.41956061 76.83326593 47.04723412 83.90113008 46.32641602 91.09082031 C46.16789154 92.74203384 46.16789154 92.74203384 46.00616455 94.42660522 C45.65934786 98.02454401 45.30439867 101.62162802 44.94921875 105.21875 C44.70452121 107.73829664 44.46030193 110.25788977 44.21653748 112.77752686 C43.70632072 118.03952603 43.19260564 123.30117023 42.67553711 128.5625 C41.9483331 135.9621334 41.22906044 143.36252244 40.51120484 150.76306772 C39.95050212 156.54012004 39.3874102 162.31693987 38.82421875 168.09375 C38.70508181 169.31655922 38.58594486 170.53936844 38.46319771 171.79923248 C38.12459078 175.26894886 37.78438541 178.73850445 37.44360352 182.20800781 C37.34434067 183.22637726 37.24507782 184.2447467 37.14280701 185.29397583 C37.04887665 186.24684479 36.95494629 187.19971375 36.85816956 188.18145752 C36.73787557 189.40803007 36.73787557 189.40803007 36.61515141 190.65938187 C36.22844977 194.24159632 35.76721291 197.81542171 35.3203125 201.390625 C6.6103125 201.390625 -22.0996875 201.390625 -51.6796875 201.390625 C-52.63149641 198.53519828 -52.97428005 196.21746494 -53.25550842 193.23536682 C-53.35785294 192.1684259 -53.46019745 191.10148499 -53.56564331 190.00221252 C-53.6742569 188.83173874 -53.78287048 187.66126495 -53.89477539 186.45532227 C-54.01196426 185.2226059 -54.12915314 183.98988953 -54.24989319 182.71981812 C-54.5706343 179.3378405 -54.88819132 175.95559304 -55.20423055 172.57317472 C-55.53556098 169.03407323 -55.87061867 165.49532449 -56.20518494 161.95652771 C-56.76657936 156.01250495 -57.3252084 150.06822738 -57.88208008 144.1237793 C-58.52585119 137.25194154 -59.17340601 130.38046878 -59.8231259 123.5091911 C-60.44804456 116.89977544 -61.0708241 110.29016014 -61.69244194 103.68043327 C-61.95699428 100.86747571 -62.2221966 98.05458055 -62.48790169 95.24173164 C-62.85883878 91.31313742 -63.22659578 87.38424908 -63.59399414 83.45532227 C-63.70463196 82.28687271 -63.81526978 81.11842316 -63.92926025 79.91456604 C-64.02878494 78.8448053 -64.12830963 77.77504456 -64.23085022 76.67286682 C-64.36164018 75.27942976 -64.36164018 75.27942976 -64.49507236 73.85784245 C-64.65599625 71.70723747 -64.6796875 69.54724232 -64.6796875 67.390625 C-66.9896875 67.390625 -69.2996875 67.390625 -71.6796875 67.390625 C-70.27673352 60.25894228 -68.22292428 54.38452614 -65.6796875 47.390625 C-50.1696875 47.390625 -34.6596875 47.390625 -18.6796875 47.390625 C-18.83761398 35.48376159 -18.83761398 35.48376159 -19.04003906 23.57763672 C-19.05173112 22.07520692 -19.06192173 20.57276436 -19.0703125 19.0703125 C-19.09077637 18.30211182 -19.11124023 17.53391113 -19.13232422 16.74243164 C-19.13570668 11.49115508 -18.24135915 8.49313212 -14.6796875 4.390625 C-9.82675501 0.17745692 -6.12758916 -0.16252711 0 0 Z " fill="#FEFEFE" transform="translate(325.6796875,1143.609375)"/>
<path d="M0 0 C0.89203125 0.00902344 1.7840625 0.01804687 2.703125 0.02734375 C3.37859375 0.03894531 4.0540625 0.05054688 4.75 0.0625 C5.3378125 1.8878125 5.3378125 1.8878125 5.9375 3.75 C7.91269322 9.03902451 11.08918155 11.9552877 15.75 15.0625 C17.41267874 15.20470279 19.0815173 15.28270567 20.75 15.3125 C23.44921875 15.5234375 23.44921875 15.5234375 25.75 16.0625 C27.5625 18.9375 27.5625 18.9375 28.75 22.0625 C32.93991181 25.65385298 36.4757461 25.39737326 41.75 25.0625 C44.10529281 24.64518982 44.10529281 24.64518982 45.75 24.0625 C50.65558504 31.91143606 52.05260011 39.06437462 52.0246582 48.21313477 C52.02976913 49.09063385 52.03488007 49.96813293 52.04014587 50.8722229 C52.05395492 53.7495216 52.05309216 56.62657853 52.05078125 59.50390625 C52.05467198 61.51594633 52.05900742 63.52798559 52.06376648 65.5400238 C52.07120927 69.74700592 52.07095079 73.95390407 52.06567383 78.16088867 C52.05987134 83.54315835 52.07683854 88.92508478 52.1000185 94.30729771 C52.11476912 98.45865374 52.1156259 102.60992726 52.11250877 106.76130486 C52.11302097 108.74557108 52.11823958 110.72984204 52.12832069 112.71408272 C52.14069821 115.49003415 52.13388633 118.26531851 52.12231445 121.04125977 C52.12995819 121.85444168 52.13760193 122.6676236 52.14547729 123.50544739 C52.07183629 131.52380604 49.52713924 137.28536076 43.75 143.0625 C38.89266075 146.23032994 34.68593537 146.21163968 28.9921875 146.1328125 C27.94695923 146.12519897 27.94695923 146.12519897 26.88061523 146.11743164 C25.170363 146.10424203 23.46016711 146.0840668 21.75 146.0625 C21.7814209 147.54459961 21.7814209 147.54459961 21.81347656 149.05664062 C21.88637008 152.75408191 21.93197694 156.45146087 21.96972656 160.14941406 C21.98973053 161.74392408 22.01694301 163.33836178 22.05175781 164.93261719 C22.40466444 181.51922845 22.40466444 181.51922845 17.75 188.0625 C12.65434739 192.1182235 8.48157823 193.44609961 2.09375 193.33203125 C-2.47254459 192.80690737 -5.39885768 190.86232033 -8.65014648 187.70117188 C-14.11041646 180.59669278 -12.78713168 171.54425316 -12.5625 163.0625 C-12.53738662 161.4127942 -12.51457881 159.7630516 -12.49414062 158.11328125 C-12.43938229 154.09543684 -12.35328207 150.07937802 -12.25 146.0625 C-13.34989258 146.08787842 -14.44978516 146.11325684 -15.58300781 146.1394043 C-17.03970539 146.15992942 -18.49641179 146.17983494 -19.953125 146.19921875 C-20.6764502 146.21754761 -21.39977539 146.23587646 -22.14501953 146.25476074 C-28.1584089 146.3147575 -31.94054428 145.22374693 -36.25 141.0625 C-41.68748569 135.33883085 -42.54837407 130.12719128 -42.5246582 122.42358398 C-42.52976913 121.56430801 -42.53488007 120.70503204 -42.54014587 119.81971741 C-42.55402895 116.98260499 -42.55308504 114.14573609 -42.55078125 111.30859375 C-42.55467093 109.32666433 -42.55900616 107.34473574 -42.56376648 105.36280823 C-42.57122745 101.20595603 -42.57093979 97.04918875 -42.56567383 92.89233398 C-42.55990136 87.59230073 -42.57675689 82.29261947 -42.6000185 76.99264431 C-42.61483323 72.89598085 -42.61561668 68.79940043 -42.61250877 64.70271492 C-42.61301883 62.75049204 -42.61819666 60.79826412 -42.62832069 58.84606743 C-42.70808223 41.30360059 -41.17409875 26.31784216 -28.75 12.8125 C-21.06029659 5.48507745 -10.78145942 -0.14186131 0 0 Z " fill="#FEFEFE" transform="translate(416.25,1481.9375)"/>
<path d="M0 0 C8.70660576 8.17475428 14.83382352 19.83436361 16.02734375 31.75 C16.0390625 33.68359375 16.0390625 33.68359375 15.7890625 36.37109375 C16.6553125 36.55671875 17.5215625 36.74234375 18.4140625 36.93359375 C23.2488897 38.992872 26.44023795 42.67344464 28.7890625 47.37109375 C29.62187809 53.77187643 28.99313971 58.4454383 25.2265625 63.7421875 C23.32014223 65.90245178 21.42912125 67.22944672 18.7890625 68.37109375 C18.1290625 68.37109375 17.4690625 68.37109375 16.7890625 68.37109375 C16.6859375 69.67046875 16.5828125 70.96984375 16.4765625 72.30859375 C15.86274225 77.78110385 14.90509892 83.74066173 11.375 88.12890625 C9.7890625 89.37109375 9.7890625 89.37109375 6.7890625 89.37109375 C6.5828125 90.62921875 6.3765625 91.88734375 6.1640625 93.18359375 C5.18305806 98.09499163 3.73590079 102.79440218 2.1796875 107.546875 C-0.38709842 115.52817747 -2.7063352 123.56341861 -4.9375 131.64453125 C-5.25582794 132.79271835 -5.57415588 133.94090546 -5.90213013 135.12388611 C-7.21888971 139.87843363 -8.5327379 144.63366692 -9.83007812 149.39355469 C-10.79253348 152.91781181 -11.77001135 156.43761568 -12.75 159.95703125 C-13.03863922 161.03093109 -13.32727844 162.10483093 -13.62466431 163.21127319 C-16.3863185 173.04578271 -16.3863185 173.04578271 -20.2109375 176.37109375 C-22.62109375 177.00219727 -22.62109375 177.00219727 -25.2734375 177 C-26.23507812 177.00193359 -27.19671875 177.00386719 -28.1875 177.00585938 C-29.18523438 176.98201172 -30.18296875 176.95816406 -31.2109375 176.93359375 C-32.20867188 176.94455078 -33.20640625 176.95550781 -34.234375 176.96679688 C-41.53690708 176.89338 -41.53690708 176.89338 -44.20123291 174.82887268 C-46.793535 171.65860303 -47.72405571 168.39283463 -48.77636719 164.51318359 C-49.00128342 163.72577286 -49.22619965 162.93836212 -49.45793152 162.12709045 C-50.19566212 159.5321565 -50.91437992 156.93236786 -51.6328125 154.33203125 C-52.14167864 152.52619402 -52.65164298 150.72066592 -53.16265869 148.91543579 C-54.22953765 145.13656521 -55.28788392 141.35545188 -56.33935547 137.57226562 C-57.68920482 132.7155197 -59.0527439 127.86276384 -60.42170334 123.01137352 C-61.72536909 118.39025095 -63.02351506 113.7675853 -64.3203125 109.14453125 C-64.56892784 108.25901958 -64.81754318 107.37350792 -65.07369232 106.46116257 C-65.77314676 103.96500198 -66.4688119 101.46782056 -67.16308594 98.97021484 C-67.37186874 98.22627975 -67.58065155 97.48234467 -67.79576111 96.71586609 C-69.2109375 91.60138027 -69.2109375 91.60138027 -69.2109375 89.37109375 C-69.7884375 89.32984375 -70.3659375 89.28859375 -70.9609375 89.24609375 C-74.42134985 87.90037783 -75.36916022 85.53050616 -77.2109375 82.37109375 C-78.28191417 78.80910469 -79.0864588 75.24374029 -79.890625 71.61328125 C-81.54645798 67.5471825 -83.48604963 66.55198665 -87.2109375 64.37109375 C-90.88793202 59.53294307 -91.86972277 55.80186966 -91.59375 49.73046875 C-90.59234959 43.55857234 -86.01476502 39.84620302 -81.2109375 36.37109375 C-80.2209375 36.37109375 -79.2309375 36.37109375 -78.2109375 36.37109375 C-78.2728125 35.44296875 -78.3346875 34.51484375 -78.3984375 33.55859375 C-78.3479362 21.05952291 -72.02756902 10.58186335 -63.73046875 1.734375 C-45.49307505 -15.37201754 -19.55852083 -14.40972294 0 0 Z " fill="#A096AF" transform="translate(920.2109375,1161.62890625)"/>
<path d="M0 0 C8.58 0 17.16 0 26 0 C27.32 3.3 28.64 6.6 30 10 C35.50927112 21.31634068 42.50022503 26.02054878 54 31 C62.49328269 33.86561977 73.33482632 32.76062053 81.4375 29.32421875 C91.89503185 23.92009787 98.56487652 17.81870717 102.3125 6.5625 C102.61800781 5.53253906 102.92351562 4.50257812 103.23828125 3.44140625 C104 1 104 1 105 0 C106.92667507 -0.08748207 108.85651861 -0.10697334 110.78515625 -0.09765625 C111.95498047 -0.09443359 113.12480469 -0.09121094 114.33007812 -0.08789062 C115.56177734 -0.07951172 116.79347656 -0.07113281 118.0625 -0.0625 C119.91584961 -0.05573242 119.91584961 -0.05573242 121.80664062 -0.04882812 C124.87114117 -0.03699608 127.93554721 -0.02051173 131 0 C130.51274869 11.59017689 129.53429603 23.01451386 128.01574707 34.51416016 C127.44438472 38.84113039 126.89412392 43.1708147 126.33984375 47.5 C126.22722198 48.37454834 126.11460022 49.24909668 125.99856567 50.15014648 C124.8501651 59.09246923 123.79133778 68.0446689 122.75 77 C122.58553206 78.41276059 122.4210627 79.82552101 122.2565918 81.23828125 C121.97073821 83.69391989 121.6855422 86.14963529 121.40136719 88.60546875 C120.95201969 92.4057897 120.47465538 96.20275695 120 100 C84.03 100 48.06 100 11 100 C8.66145337 81.87626363 6.33982146 63.78667203 4.375 45.625 C4.06765582 42.80816623 3.75944186 39.99142945 3.45074463 37.17474365 C3.25183596 35.35830151 3.05369468 33.54177514 2.85638428 31.72515869 C2.39738006 27.51897013 1.92294213 23.3158526 1.40722656 19.11621094 C1.31357819 18.34932953 1.21992981 17.58244812 1.1234436 16.79232788 C0.87076566 14.74177646 0.61260966 12.69190211 0.35400391 10.64208984 C0.01063469 7.10941265 0 3.54932537 0 0 Z " fill="#FEFEFE" transform="translate(556,1298)"/>
<path d="M0 0 C1.47292659 -0.00678835 2.94584469 -0.01569828 4.41874695 -0.02655029 C8.39205462 -0.04920613 12.36470798 -0.04056483 16.33802605 -0.02465487 C20.51202935 -0.01192415 24.68597966 -0.02375577 28.85998535 -0.03158569 C35.86720758 -0.04066151 42.87416561 -0.02874892 49.88134766 -0.00488281 C57.9624704 0.02232465 66.04296222 0.01350901 74.12406969 -0.01401484 C81.08408492 -0.03676414 88.04391112 -0.03987767 95.00395155 -0.02682149 C99.15136513 -0.01905882 103.29848294 -0.01789694 107.44587708 -0.03450394 C111.34666531 -0.04903473 115.2466466 -0.03877214 119.1473484 -0.01003265 C120.57186867 -0.00346739 121.99645782 -0.00524073 123.42094994 -0.01634598 C132.69917802 -0.08196466 140.55259531 0.73160874 147.76796722 7.05411339 C153.09068944 12.92131062 154.77231915 19.2220281 154.49804688 26.94384766 C153.55459259 34.53536353 149.31254666 38.91317021 143.86914062 43.98291016 C135.51721558 49.11699395 125.04343408 47.88247552 115.59960938 47.77197266 C114.09896431 47.76192188 112.59831273 47.75279975 111.09765625 47.74462891 C107.45233656 47.72278356 103.80726561 47.68836956 100.16210938 47.64697266 C100.57420654 47.03861572 100.98630371 46.43025879 101.41088867 45.8034668 C102.2216687 44.59871704 102.2216687 44.59871704 103.04882812 43.36962891 C103.58467529 42.57564697 104.12052246 41.78166504 104.67260742 40.96362305 C108.30673998 35.31138835 109.58625734 30.21168581 110.16210938 23.64697266 C108.18210937 23.64697266 106.20210937 23.64697266 104.16210938 23.64697266 C104.01515625 24.62537109 104.01515625 24.62537109 103.86523438 25.62353516 C102.37822198 34.31486621 99.43150638 39.3730964 92.16210938 44.64697266 C86.36740623 47.72081265 81.71773004 48.0270443 75.22460938 47.83447266 C73.91266602 47.81416992 73.91266602 47.81416992 72.57421875 47.79345703 C70.43657851 47.75841375 68.29925954 47.70461807 66.16210938 47.64697266 C66.58177979 47.11523438 67.0014502 46.58349609 67.43383789 46.03564453 C73.0502219 38.86002988 76.50685854 32.82048432 77.16210938 23.64697266 C74.85210938 23.64697266 72.54210937 23.64697266 70.16210938 23.64697266 C70.15953125 24.27603516 70.15695312 24.90509766 70.15429688 25.55322266 C69.8389843 32.53214089 68.08395925 36.67912418 63.16210938 41.64697266 C56.44073616 47.0812744 49.563013 47.95774686 41.22460938 47.77197266 C40.44537109 47.76294922 39.66613281 47.75392578 38.86328125 47.74462891 C36.96275491 47.72130956 35.06238929 47.68544852 33.16210938 47.64697266 C33.54882812 47.19708984 33.93554688 46.74720703 34.33398438 46.28369141 C39.81716352 39.51115082 42.60806788 32.18650762 44.16210938 23.64697266 C41.85210938 23.64697266 39.54210937 23.64697266 37.16210938 23.64697266 C37.24460937 24.47197266 37.32710937 25.29697266 37.41210938 26.14697266 C36.83423893 34.23715883 32.39715624 38.81567957 26.47851562 43.98291016 C20.03649725 48.61073449 13.14794058 47.98555246 5.55249023 47.96264648 C3.36651236 47.95949701 1.1819036 47.98293307 -1.00390625 48.00830078 C-11.49480055 48.05759149 -19.13935893 47.06842282 -27.07226562 39.58837891 C-32.15347238 34.0012998 -33.46894333 28.75554457 -33.15820312 21.25634766 C-32.40072002 15.0856316 -29.50843486 9.73955971 -24.83789062 5.64697266 C-16.95050664 0.18694837 -9.32292464 -0.0726809 0 0 Z " fill="#FEFEFE" transform="translate(560.837890625,1006.35302734375)"/>
<path d="M0 0 C2.49845191 1.92876019 4.88217957 3.93292976 7.24609375 6.0234375 C8.14714844 6.78333984 8.14714844 6.78333984 9.06640625 7.55859375 C18.32116347 15.97396601 25.40148368 28.24297192 29.24609375 40.0234375 C29.63341675 41.18649414 29.63341675 41.18649414 30.02856445 42.37304688 C32.26768195 49.67678769 32.67019478 56.41671115 32.55859375 64.0234375 C32.56181641 65.12171875 32.56503906 66.22 32.56835938 67.3515625 C32.5026946 77.42812087 31.34432521 86.75212838 27.12109375 95.9609375 C26.8176001 96.63697021 26.51410645 97.31300293 26.20141602 98.00952148 C23.2059246 104.46938373 19.49083718 110.30800495 15.24609375 116.0234375 C14.78976562 116.66410156 14.3334375 117.30476563 13.86328125 117.96484375 C3.5247192 131.30592233 -15.6849007 141.99825158 -32.2578125 144.56640625 C-57.59428691 147.5074038 -78.20907852 143.43228632 -98.44140625 127.8359375 C-111.57159763 116.52080199 -121.55583862 102.03665893 -125.75390625 85.0234375 C-125.95628906 84.23582031 -126.15867187 83.44820312 -126.3671875 82.63671875 C-128.88825919 71.16327006 -128.92696688 58.3557969 -125.75390625 47.0234375 C-125.49738281 46.02183594 -125.24085938 45.02023437 -124.9765625 43.98828125 C-119.58899652 24.5884192 -107.06597726 7.06106187 -89.6875 -3.3515625 C-60.84272712 -19.32949262 -27.48707628 -19.7283129 0 0 Z M-74.75390625 3.0234375 C-76.50837521 5.82949354 -76.50837521 5.82949354 -78.00390625 8.8984375 C-81.75368255 14.92877951 -85.36989248 16.5256863 -91.94140625 18.3359375 C-92.72612305 18.51688965 -93.51083984 18.6978418 -94.31933594 18.88427734 C-99.29897775 20.11273056 -102.1797858 21.50156007 -104.91479492 25.96118164 C-106.46184329 29.7633107 -106.3769185 33.53161644 -106.31640625 37.5859375 C-106.22847433 46.23708603 -108.38212649 50.28290879 -114.00390625 56.8984375 C-116.09436806 59.67864559 -117.20526053 61.64880844 -117.37890625 65.1484375 C-116.58636747 70.06217793 -114.82007963 73.07062026 -111.1875 76.50390625 C-105.91024692 82.06091732 -106.07757886 87.83260969 -106.15551758 95.14526367 C-106.14832687 100.62182062 -105.45600955 103.69782207 -101.75390625 108.0234375 C-98.6872044 110.94349872 -95.92876896 111.59981977 -91.81640625 112.3984375 C-83.17628214 114.45909664 -80.22339275 119.54013062 -75.59765625 126.71875 C-72.77295725 130.24962375 -70.09417783 131.83579948 -65.62890625 132.4609375 C-62.06175692 132.05819483 -59.56930121 131.29963748 -56.25390625 130.0234375 C-48.34584421 127.01084244 -43.77099399 127.89497604 -36.17578125 131.1171875 C-32.81420754 132.37506669 -30.29713567 132.56854972 -26.75390625 132.0234375 C-21.99658047 129.33672347 -19.35451489 126.45956809 -16.31640625 121.9609375 C-12.66815014 116.94230139 -10.70853458 114.61842723 -4.75390625 113.0234375 C3.89242079 110.49258642 3.89242079 110.49258642 10.39453125 104.4375 C11.47066485 101.38680933 11.24733717 98.9284698 11.06567383 95.72729492 C10.40873332 83.83315017 10.40873332 83.83315017 14.55859375 78.7109375 C15.7582729 77.45297434 16.98372497 76.21847995 18.24609375 75.0234375 C21.31263739 71.16552776 22.0402954 67.72202206 21.9453125 62.86328125 C20.49883418 56.98847823 16.04975708 52.56770068 12.24609375 48.0234375 C10.73322987 44.99770975 11.27161588 42.19497344 11.37109375 38.8359375 C11.44298421 33.1619663 11.37074165 28.87202906 8.24609375 24.0234375 C4.60798415 20.63645405 1.53426056 19.29976016 -3.25390625 18.0859375 C-9.75203147 16.18030752 -12.61853357 14.19642085 -16.41796875 8.55078125 C-17.02382813 7.65488281 -17.6296875 6.75898437 -18.25390625 5.8359375 C-18.80046875 4.97613281 -19.34703125 4.11632813 -19.91015625 3.23046875 C-22.92735386 -0.38121907 -25.86973447 -0.88664673 -30.44140625 -1.3515625 C-33.95804819 -1.29207044 -36.49639989 -0.34784641 -39.69140625 1.0859375 C-44.7281543 3.26440828 -48.46862565 3.44868171 -53.75390625 2.0234375 C-54.92953125 1.5078125 -56.10515625 0.9921875 -57.31640625 0.4609375 C-64.13492322 -2.39044232 -68.87909186 -1.6251937 -74.75390625 3.0234375 Z " fill="#FBFBFC" transform="translate(735.75390625,1579.9765625)"/>
<path d="M0 0 C0.81276398 0.00565979 1.62552795 0.01131958 2.46292114 0.01715088 C5.04100195 0.03941662 7.61765681 0.08959185 10.1953125 0.140625 C11.95050066 0.1607028 13.70571076 0.17895133 15.4609375 0.1953125 C19.74837772 0.23583651 24.03276253 0.31413749 28.3203125 0.390625 C28.3203125 6.990625 28.3203125 13.590625 28.3203125 20.390625 C19.4103125 20.390625 10.5003125 20.390625 1.3203125 20.390625 C1.3203125 29.300625 1.3203125 38.210625 1.3203125 47.390625 C17.1603125 47.390625 33.0003125 47.390625 49.3203125 47.390625 C55.3203125 65.390625 55.3203125 65.390625 55.3203125 67.390625 C52.6803125 67.390625 50.0403125 67.390625 47.3203125 67.390625 C47.33184325 68.12113445 47.343374 68.85164391 47.35525417 69.60429001 C47.41956061 76.83326593 47.04723412 83.90113008 46.32641602 91.09082031 C46.16789154 92.74203384 46.16789154 92.74203384 46.00616455 94.42660522 C45.65934786 98.02454401 45.30439867 101.62162802 44.94921875 105.21875 C44.70452121 107.73829664 44.46030193 110.25788977 44.21653748 112.77752686 C43.70632072 118.03952603 43.19260564 123.30117023 42.67553711 128.5625 C41.9483331 135.9621334 41.22906044 143.36252244 40.51120484 150.76306772 C39.95050212 156.54012004 39.3874102 162.31693987 38.82421875 168.09375 C38.70508181 169.31655922 38.58594486 170.53936844 38.46319771 171.79923248 C38.12459078 175.26894886 37.78438541 178.73850445 37.44360352 182.20800781 C37.34434067 183.22637726 37.24507782 184.2447467 37.14280701 185.29397583 C37.04887665 186.24684479 36.95494629 187.19971375 36.85816956 188.18145752 C36.73787557 189.40803007 36.73787557 189.40803007 36.61515141 190.65938187 C36.22844977 194.24159632 35.76721291 197.81542171 35.3203125 201.390625 C6.6103125 201.390625 -22.0996875 201.390625 -51.6796875 201.390625 C-52.63149641 198.53519828 -52.97428005 196.21746494 -53.25550842 193.23536682 C-53.35785294 192.1684259 -53.46019745 191.10148499 -53.56564331 190.00221252 C-53.6742569 188.83173874 -53.78287048 187.66126495 -53.89477539 186.45532227 C-54.01196426 185.2226059 -54.12915314 183.98988953 -54.24989319 182.71981812 C-54.5706343 179.3378405 -54.88819132 175.95559304 -55.20423055 172.57317472 C-55.53556098 169.03407323 -55.87061867 165.49532449 -56.20518494 161.95652771 C-56.76657936 156.01250495 -57.3252084 150.06822738 -57.88208008 144.1237793 C-58.52585119 137.25194154 -59.17340601 130.38046878 -59.8231259 123.5091911 C-60.44804456 116.89977544 -61.0708241 110.29016014 -61.69244194 103.68043327 C-61.95699428 100.86747571 -62.2221966 98.05458055 -62.48790169 95.24173164 C-62.85883878 91.31313742 -63.22659578 87.38424908 -63.59399414 83.45532227 C-63.70463196 82.28687271 -63.81526978 81.11842316 -63.92926025 79.91456604 C-64.02878494 78.8448053 -64.12830963 77.77504456 -64.23085022 76.67286682 C-64.36164018 75.27942976 -64.36164018 75.27942976 -64.49507236 73.85784245 C-64.65599625 71.70723747 -64.6796875 69.54724232 -64.6796875 67.390625 C-66.9896875 67.390625 -69.2996875 67.390625 -71.6796875 67.390625 C-70.27673352 60.25894228 -68.22292428 54.38452614 -65.6796875 47.390625 C-50.1696875 47.390625 -34.6596875 47.390625 -18.6796875 47.390625 C-18.83761398 35.48376159 -18.83761398 35.48376159 -19.04003906 23.57763672 C-19.05173112 22.07520692 -19.06192173 20.57276436 -19.0703125 19.0703125 C-19.09077637 18.30211182 -19.11124023 17.53391113 -19.13232422 16.74243164 C-19.13570668 11.49115508 -18.24135915 8.49313212 -14.6796875 4.390625 C-9.82675501 0.17745692 -6.12758916 -0.16252711 0 0 Z M-57.6796875 67.390625 C-56.85077272 81.65611811 -56.85077272 81.65611811 -55.6640625 95.87988281 C-55.56798706 96.89845871 -55.47191162 97.91703461 -55.3729248 98.96647644 C-55.06153183 102.25919584 -54.74577594 105.55147831 -54.4296875 108.84375 C-54.2091171 111.16158241 -53.98874307 113.47943351 -53.76855469 115.79730225 C-53.30990565 120.61815031 -52.84911654 125.43878744 -52.38671875 130.25927734 C-51.79439445 136.43577377 -51.20719345 142.61274473 -50.621521 148.78987503 C-50.16876393 153.55979635 -49.71349672 158.32947547 -49.25744629 163.09908295 C-49.03981959 165.37798804 -48.82293524 167.65696415 -48.60681152 169.93601227 C-48.30550741 173.10895691 -48.00086468 176.28156357 -47.6953125 179.45410156 C-47.60697144 180.39124496 -47.51863037 181.32838837 -47.4276123 182.29393005 C-47.34354126 183.15972183 -47.25947021 184.02551361 -47.17285156 184.9175415 C-47.10132874 185.66515873 -47.02980591 186.41277596 -46.95611572 187.18304825 C-46.65296266 189.60405161 -46.15819315 191.99809675 -45.6796875 194.390625 C-20.9296875 194.390625 3.8203125 194.390625 29.3203125 194.390625 C30.54102826 182.3299533 31.75033809 170.26845955 32.94293213 158.20501709 C33.20972433 155.50840081 33.47690329 152.81182506 33.74456787 150.11529541 C34.61898397 141.30336725 35.48761082 132.49090189 36.34634113 123.67743015 C36.74619348 119.57481815 37.14833409 115.47246144 37.55618286 111.37063599 C37.94760416 107.43269802 38.33229999 103.49415476 38.7123661 99.55510521 C38.85447352 98.09376448 38.99884885 96.63264205 39.14577293 95.17177773 C39.35065334 93.1305487 39.54681143 91.08863726 39.74121094 89.04638672 C39.85350037 87.90128632 39.96578979 86.75618591 40.08148193 85.5763855 C40.42683029 79.52378702 40.3203125 73.4530679 40.3203125 67.390625 C7.9803125 67.390625 -24.3596875 67.390625 -57.6796875 67.390625 Z " fill="#A096AF" transform="translate(325.6796875,1143.609375)"/>
<path d="M0 0 C7.33525179 5.31500684 14.20121707 13.47754442 16.11328125 22.53125 C16.32938199 25.88321256 16.29876473 29.17880784 16.11328125 32.53125 C14.13328125 32.53125 12.15328125 32.53125 10.11328125 32.53125 C10.11328125 34.84125 10.11328125 37.15125 10.11328125 39.53125 C11.06589844 39.47324219 12.01851562 39.41523437 13 39.35546875 C23.10873735 38.9918451 23.10873735 38.9918451 26.12109375 40.609375 C27.42578125 41.96875 27.42578125 41.96875 29.11328125 44.53125 C29.44328125 44.86125 29.77328125 45.19125 30.11328125 45.53125 C30.70296184 52.60741708 30.70296184 52.60741708 28.23828125 56.46875 C24.31188591 60.27966312 20.55483197 59.69842221 15.35253906 59.72412109 C14.44504913 59.73229858 13.5375592 59.74047607 12.60256958 59.74890137 C9.59052189 59.77377332 6.57852141 59.79027654 3.56640625 59.8046875 C2.53866844 59.81001118 1.51093063 59.81533485 0.45204926 59.82081985 C-4.98833979 59.84756004 -10.42870582 59.86693164 -15.86914062 59.88134766 C-21.48947012 59.89799206 -27.10921284 59.94276594 -32.72932053 59.9937191 C-37.04962845 60.02737277 -41.36979684 60.0389231 -45.69022369 60.04457474 C-47.76187877 60.05129304 -49.83352449 60.06653007 -51.90505219 60.09046555 C-54.80665389 60.12207741 -57.7066698 60.12215963 -60.60839844 60.11474609 C-61.46265411 60.13115143 -62.31690979 60.14755676 -63.197052 60.16445923 C-67.3953281 60.12060164 -70.08159057 59.8062049 -73.42120361 57.13735962 C-75.88671875 54.53125 -75.88671875 54.53125 -76.61328125 52.25 C-76.37907546 47.13350422 -75.79623304 44.21079286 -71.88671875 40.53125 C-68.82077281 38.99827703 -65.61560022 39.40993545 -62.25390625 39.43359375 C-61.1261528 39.43571617 -61.1261528 39.43571617 -59.97561646 39.43788147 C-57.57094365 39.44348535 -55.16636348 39.45603843 -52.76171875 39.46875 C-51.13281384 39.4737645 -49.50390748 39.4783275 -47.875 39.48242188 C-43.87887048 39.49345603 -39.88281033 39.51072321 -35.88671875 39.53125 C-36.38171875 36.56125 -36.38171875 36.56125 -36.88671875 33.53125 C-49.75671875 33.03625 -49.75671875 33.03625 -62.88671875 32.53125 C-62.88671875 21.86001609 -59.52808866 12.06353765 -51.921875 4.2734375 C-36.30027686 -9.09937012 -17.49816482 -11.38636562 0 0 Z " fill="#FEFEFE" transform="translate(911.88671875,1164.46875)"/>
<path d="M0 0 C0.89203125 0.00902344 1.7840625 0.01804687 2.703125 0.02734375 C3.37859375 0.03894531 4.0540625 0.05054688 4.75 0.0625 C5.3378125 1.8878125 5.3378125 1.8878125 5.9375 3.75 C7.91269322 9.03902451 11.08918155 11.9552877 15.75 15.0625 C17.41267874 15.20470279 19.0815173 15.28270567 20.75 15.3125 C23.44921875 15.5234375 23.44921875 15.5234375 25.75 16.0625 C27.5625 18.9375 27.5625 18.9375 28.75 22.0625 C32.93991181 25.65385298 36.4757461 25.39737326 41.75 25.0625 C44.10529281 24.64518982 44.10529281 24.64518982 45.75 24.0625 C50.65558504 31.91143606 52.05260011 39.06437462 52.0246582 48.21313477 C52.02976913 49.09063385 52.03488007 49.96813293 52.04014587 50.8722229 C52.05395492 53.7495216 52.05309216 56.62657853 52.05078125 59.50390625 C52.05467198 61.51594633 52.05900742 63.52798559 52.06376648 65.5400238 C52.07120927 69.74700592 52.07095079 73.95390407 52.06567383 78.16088867 C52.05987134 83.54315835 52.07683854 88.92508478 52.1000185 94.30729771 C52.11476912 98.45865374 52.1156259 102.60992726 52.11250877 106.76130486 C52.11302097 108.74557108 52.11823958 110.72984204 52.12832069 112.71408272 C52.14069821 115.49003415 52.13388633 118.26531851 52.12231445 121.04125977 C52.12995819 121.85444168 52.13760193 122.6676236 52.14547729 123.50544739 C52.07183629 131.52380604 49.52713924 137.28536076 43.75 143.0625 C38.89266075 146.23032994 34.68593537 146.21163968 28.9921875 146.1328125 C27.94695923 146.12519897 27.94695923 146.12519897 26.88061523 146.11743164 C25.170363 146.10424203 23.46016711 146.0840668 21.75 146.0625 C21.7814209 147.54459961 21.7814209 147.54459961 21.81347656 149.05664062 C21.88637008 152.75408191 21.93197694 156.45146087 21.96972656 160.14941406 C21.98973053 161.74392408 22.01694301 163.33836178 22.05175781 164.93261719 C22.40466444 181.51922845 22.40466444 181.51922845 17.75 188.0625 C12.65434739 192.1182235 8.48157823 193.44609961 2.09375 193.33203125 C-2.47254459 192.80690737 -5.39885768 190.86232033 -8.65014648 187.70117188 C-14.11041646 180.59669278 -12.78713168 171.54425316 -12.5625 163.0625 C-12.53738662 161.4127942 -12.51457881 159.7630516 -12.49414062 158.11328125 C-12.43938229 154.09543684 -12.35328207 150.07937802 -12.25 146.0625 C-13.34989258 146.08787842 -14.44978516 146.11325684 -15.58300781 146.1394043 C-17.03970539 146.15992942 -18.49641179 146.17983494 -19.953125 146.19921875 C-20.6764502 146.21754761 -21.39977539 146.23587646 -22.14501953 146.25476074 C-28.1584089 146.3147575 -31.94054428 145.22374693 -36.25 141.0625 C-41.68748569 135.33883085 -42.54837407 130.12719128 -42.5246582 122.42358398 C-42.52976913 121.56430801 -42.53488007 120.70503204 -42.54014587 119.81971741 C-42.55402895 116.98260499 -42.55308504 114.14573609 -42.55078125 111.30859375 C-42.55467093 109.32666433 -42.55900616 107.34473574 -42.56376648 105.36280823 C-42.57122745 101.20595603 -42.57093979 97.04918875 -42.56567383 92.89233398 C-42.55990136 87.59230073 -42.57675689 82.29261947 -42.6000185 76.99264431 C-42.61483323 72.89598085 -42.61561668 68.79940043 -42.61250877 64.70271492 C-42.61301883 62.75049204 -42.61819666 60.79826412 -42.62832069 58.84606743 C-42.70808223 41.30360059 -41.17409875 26.31784216 -28.75 12.8125 C-21.06029659 5.48507745 -10.78145942 -0.14186131 0 0 Z M-25.96875 19.87109375 C-34.58985011 30.44953546 -36.00415935 41.75749017 -35.87890625 54.87890625 C-35.87973678 56.46882794 -35.88220308 58.05874953 -35.88621521 59.64866638 C-35.88905226 62.95427787 -35.87456468 66.25920379 -35.84692383 69.56469727 C-35.81259059 73.801829 -35.8189617 78.03775695 -35.8375864 82.27494907 C-35.84813892 85.54607729 -35.83923896 88.81692405 -35.82420158 92.08802605 C-35.81902327 93.65133772 -35.81949734 95.21467877 -35.82574654 96.77798653 C-35.83118796 98.95363288 -35.81087217 101.12753147 -35.78344727 103.30297852 C-35.77724869 104.53919449 -35.77105011 105.77541046 -35.7646637 107.04908752 C-35.53095925 110.13130716 -35.53095925 110.13130716 -33.4080658 111.95762634 C-30.45993829 113.46699108 -28.51352517 113.54855694 -25.25 113.0625 C-23.14414705 111.27309614 -22.34111335 109.78131082 -21.99331665 107.03747559 C-21.90166763 104.44143117 -21.91331434 101.8629353 -21.95703125 99.265625 C-21.96127609 98.31685486 -21.96552094 97.36808472 -21.96989441 96.39056396 C-21.98666918 93.36425234 -22.02431944 90.3386099 -22.0625 87.3125 C-22.07754838 85.25912421 -22.09123652 83.20573797 -22.10351562 81.15234375 C-22.13656883 76.12213852 -22.18834317 71.09243267 -22.25 66.0625 C-19.94 66.0625 -17.63 66.0625 -15.25 66.0625 C-15.31891281 72.2376207 -15.40689828 78.41206662 -15.51245117 84.58666992 C-15.54567422 86.68652861 -15.5737143 88.78647603 -15.59643555 90.88647461 C-15.63002936 93.90777344 -15.68234834 96.92826101 -15.73828125 99.94921875 C-15.74786613 101.35417854 -15.74786613 101.35417854 -15.75764465 102.78752136 C-15.86770491 107.68350873 -16.05261442 111.10280476 -19.25 115.0625 C-22.06783579 117.67415269 -23.95757268 119.05090872 -27.86328125 119.0859375 C-30.35195118 118.83953454 -32.79006627 118.50976068 -35.25 118.0625 C-35.69219872 125.54302834 -36.00320994 131.02463872 -31.25 137.0625 C-27.48383943 139.81868559 -24.82673334 140.44274599 -20.19384766 140.46655273 C-18.3964061 140.48557899 -18.3964061 140.48557899 -16.56265259 140.50498962 C-15.27611786 140.50205399 -13.98958313 140.49911835 -12.6640625 140.49609375 C-11.32034034 140.5006594 -9.97662052 140.50596612 -8.63290405 140.51197815 C-5.8202769 140.52089747 -3.00793383 140.5185008 -0.1953125 140.50854492 C3.39479812 140.49707038 6.98392288 140.51724775 10.57390404 140.54646206 C13.34848174 140.56488351 16.12282593 140.56451969 18.89744949 140.55882454 C20.85991852 140.55859819 22.82236577 140.57544646 24.78475952 140.59263611 C31.59880619 140.53957094 36.35399111 140.42533986 41.75 136.0625 C45.32539327 131.56699666 45.17205651 127.52810131 45.12231445 122.03710938 C45.12596512 121.13732864 45.12961578 120.23754791 45.13337708 119.3105011 C45.14146963 116.3422242 45.12788307 113.37449542 45.11328125 110.40625 C45.11276249 108.34029134 45.11328081 106.27433219 45.11479187 104.20837402 C45.1147022 99.88086569 45.10428417 95.55354386 45.08618164 91.22607422 C45.06349482 85.6810295 45.06295104 80.13625725 45.06969929 74.59117889 C45.07304193 70.32580141 45.06640357 66.06048596 45.05657005 61.79512024 C45.05272288 59.7505984 45.05156784 57.70606965 45.0531559 55.6615448 C45.05352706 52.80352651 45.04089201 49.94585655 45.0246582 47.08789062 C45.02713562 46.24410355 45.02961304 45.40031647 45.03216553 44.53096008 C44.99345238 40.25702327 44.72887116 36.96033332 42.75 33.0625 C42.02554688 33.03671875 41.30109375 33.0109375 40.5546875 32.984375 C34.50049878 32.62919593 30.50685138 32.13980118 25.75 28.0625 C25.0075 27.216875 24.265 26.37125 23.5 25.5 C20.67863257 22.9992425 19.46832995 22.56616455 15.9375 21.6875 C10.27268731 20.19097486 6.600263 17.43905794 2.75 13.0625 C0.75 9.625 0.75 9.625 -0.25 7.0625 C-10.47301058 6.60935237 -19.1675342 12.71435985 -25.96875 19.87109375 Z " fill="#9F96AF" transform="translate(416.25,1481.9375)"/>
<path d="M0 0 C22.02275019 -0.8534112 42.22326778 3.84075542 59 19 C61.5625 21.375 61.5625 21.375 64 24 C64.88945312 24.88171875 64.88945312 24.88171875 65.796875 25.78125 C73.78151349 34.0753706 83 48.00445907 83 60 C79.04 60 75.08 60 71 60 C72.2375 62.0109375 72.2375 62.0109375 73.5 64.0625 C76.8388757 71.14833621 76.28451446 78.15507323 75.81445312 85.84985352 C75.45795355 92.19913889 75.45795355 92.19913889 78.4375 97.57421875 C79.7059375 98.77498047 79.7059375 98.77498047 81 100 C82.85714672 103.71429344 82.44347927 107.94622471 82 112 C79.61060179 116.87069634 76.31539963 119.85335444 72 123 C71.31421875 123.12503906 70.6284375 123.25007813 69.921875 123.37890625 C67.83193141 123.80996067 67.83193141 123.80996067 67.015625 125.8203125 C66.76296875 126.58085938 66.5103125 127.34140625 66.25 128.125 C63.41009127 135.02192119 58.46974404 139.21474908 51.671875 142.18359375 C42.19167269 145.49141419 31.70915372 144.4135683 21.8125 144.25 C19.69467833 144.22990589 17.57683827 144.21166027 15.45898438 144.1953125 C10.30553039 144.15154425 5.15297064 144.08267648 0 144 C0 141.69 0 139.38 0 137 C0.55408539 136.99857498 1.10817078 136.99714996 1.67904663 136.99568176 C7.48785826 136.97587283 13.29563479 136.92136227 19.10400391 136.84741211 C21.26668857 136.82432927 23.42948409 136.80985939 25.59228516 136.80444336 C28.71586424 136.7950827 31.83772278 136.75393617 34.9609375 136.70703125 C36.39280899 136.71293022 36.39280899 136.71293022 37.85360718 136.71894836 C44.58812042 136.57518962 50.63515898 135.29300166 56 131 C57.32 128.69 58.64 126.38 60 124 C40.2 124 20.4 124 0 124 C0 121.69 0 119.38 0 117 C0.84080612 116.99413376 1.68161224 116.98826752 2.54789734 116.98222351 C10.47852842 116.92427754 18.40887843 116.85218994 26.33923626 116.76428509 C30.41616012 116.71959101 34.49298427 116.68033293 38.57006836 116.65356445 C42.50599859 116.62752161 46.44154495 116.58711271 50.37723732 116.53681374 C51.8774519 116.52015157 53.37773286 116.50863322 54.87802696 116.50238609 C56.98248746 116.49273751 59.08596738 116.46467174 61.19018555 116.43237305 C62.38709518 116.42126999 63.58400482 116.41016693 64.81718445 116.39872742 C68.30089025 115.96230595 70.20537915 115.08983432 73 113 C74.61469184 109.77061633 74.58079278 106.49143247 74 103 C72.10350449 99.85341334 72.10350449 99.85341334 69 98 C62.8296891 97.36331824 57.86581397 99.09189656 52.125 101.0625 C42.56174459 104.23551265 32.93528506 107.04462618 23.21337891 109.68969727 C22.2135498 109.96354248 21.2137207 110.2373877 20.18359375 110.51953125 C18.86186157 110.87688354 18.86186157 110.87688354 17.51342773 111.24145508 C14.94286461 111.9720248 14.94286461 111.9720248 12.32739258 113.10546875 C9.52461354 114.18271436 8.12486079 113.93515675 5.25 113.1875 C4.47140625 112.99542969 3.6928125 112.80335938 2.890625 112.60546875 C1 112 1 112 0 111 C-0.04092937 108.66702567 -0.04241723 106.33294775 0 104 C0.58700684 104.18425537 1.17401367 104.36851074 1.77880859 104.55834961 C9.33227794 106.54614361 14.41509735 105.20582127 21.625 102.5625 C33.983722 98.2268448 46.36664963 94.68472719 59 91 C29.795 90.505 29.795 90.505 0 90 C0 87.69 0 85.38 0 83 C22.44 83 44.88 83 68 83 C68 81.02 68 79.04 68 77 C67.43152344 77.2165625 66.86304688 77.433125 66.27734375 77.65625 C60.75403752 79.64795976 55.4166147 81.51391376 49.734375 78.99609375 C46.36581377 77.76897502 43.57891878 77.73457363 40 77.75 C38.80375 77.74484375 37.6075 77.7396875 36.375 77.734375 C33.10787961 77.99150948 30.96874007 78.70307601 28 80 C21.65625 80.4375 21.65625 80.4375 18 78 C15.12942749 77.68211508 15.12942749 77.68211508 12 77.75 C10.948125 77.74484375 9.89625 77.7396875 8.8125 77.734375 C5.79349621 77.79532983 5.79349621 77.79532983 3 80 C2.01 80 1.02 80 0 80 C0 77.69 0 75.38 0 73 C7.62975779 68 7.62975779 68 12.6875 68 C16 69 16 69 19.0625 70.5625 C22.52466835 72.2567526 24.18485745 72.52364702 28 72 C29.51545114 71.36924466 31.01481793 70.69905555 32.5 70 C36.26900487 68.24113106 38.78307569 67.29717928 43 68 C45.31061403 68.97112763 47.56941558 70.03244802 49.83984375 71.09375 C52.83171661 72.34892993 54.79459626 72.54560064 58 72 C60.76636709 70.83097056 63.39029477 69.48369028 66 68 C65.67 66.02 65.34 64.04 65 62 C63.989375 62.495 62.97875 62.99 61.9375 63.5 C58.09847824 65.10792695 55.19860936 65.50672872 51 65 C49.461377 64.35329331 47.94073248 63.66267748 46.4375 62.9375 C42.47980429 61.04905636 40.29972141 60.59791693 36 62 C34.88625 62.515625 33.7725 63.03125 32.625 63.5625 C28.51506973 65.19229994 25.35673547 65.82657432 21 65 C19.1484375 64.0625 19.1484375 64.0625 17.375 62.9375 C14.19668525 60.72767275 14.19668525 60.72767275 10.875 61.0625 C7.91753845 62.02688964 5.63161127 63.36413354 3 65 C2.01 65 1.02 65 0 65 C0 61.04 0 57.08 0 53 C24.42 53 48.84 53 74 53 C69.08767343 43.17534686 65.25673401 35.77595518 58 28 C57.33613281 27.28199219 56.67226562 26.56398438 55.98828125 25.82421875 C40.91155802 11.0346712 20.22251087 7.4032405 0 7 C0 4.69 0 2.38 0 0 Z " fill="#A096AF" transform="translate(187,910)"/>
<path d="M0 0 C0 2.31 0 4.62 0 7 C-3.39789769 5.87458166 -6.78836131 4.73028856 -10.171875 3.5625 C-11.69787823 3.04155407 -13.22392068 2.52072301 -14.75 2 C-15.49765625 1.73960938 -16.2453125 1.47921875 -17.015625 1.2109375 C-26.65425998 -2.05695587 -35.63674635 -3.34418987 -45.8125 -3.25 C-46.86985352 -3.24323242 -47.92720703 -3.23646484 -49.01660156 -3.22949219 C-77.15141244 -2.8573615 -100.48097174 9.06030302 -120 29 C-122.64780831 32.17227803 -124.8600169 35.46877493 -127 39 C-127.67933594 40.10601563 -128.35867188 41.21203125 -129.05859375 42.3515625 C-137.98821247 57.22063464 -141.43063778 71.73701563 -143 89 C-95.81 89 -48.62 89 0 89 C0 91.31 0 93.62 0 96 C-49.5 96 -99 96 -150 96 C-150.33 93.36 -150.66 90.72 -151 88 C-152.45564213 86.01933578 -152.45564213 86.01933578 -154.4375 84.8125 C-157.56606989 82.40837355 -159.17925404 81.01253578 -160 77 C-160.78062884 68.26852186 -160.78062884 68.26852186 -158.5 64.5625 C-156.70070645 61.48870685 -156.97368324 60.12684345 -157.1875 56.625 C-157.36406577 51.53175667 -157.36406577 51.53175667 -155.7109375 49.1171875 C-154.60536251 48.03257127 -153.49592882 46.95187533 -152.3828125 45.875 C-150.54367169 43.38124975 -150.56265164 41.5703868 -150.4375 38.5 C-150.21987878 33.94860763 -149.67630837 31.16525168 -146.79296875 27.60546875 C-143.70470054 24.84015669 -140.0615088 22.93274522 -136.5078125 20.82421875 C-133.32909551 18.51197446 -132.4355631 16.41468478 -131 12.8671875 C-129.04565226 9.21805384 -125.78178228 7.43400915 -122 6 C-117.62465034 5.2966866 -114.16294209 5.51878258 -110.0546875 7.21875 C-107.01539763 8.33048663 -107.01539763 8.33048663 -104.359375 6.83984375 C-103.49828125 6.21207031 -102.6371875 5.58429688 -101.75 4.9375 C-92.61532975 -1.34104694 -83.681621 -5.06286802 -73 -8 C-71.52466797 -8.45246094 -71.52466797 -8.45246094 -70.01953125 -8.9140625 C-47.42859041 -15.16821689 -20.51610782 -10.8576558 0 0 Z " fill="#9F95AE" transform="translate(1056,1536)"/>
<path d="M0 0 C0 1.98 0 3.96 0 6 C-0.87140625 6.23074219 -1.7428125 6.46148438 -2.640625 6.69921875 C-24.46677748 12.67542717 -40.0630674 21.78725721 -52.45703125 41.12890625 C-54.31619685 44.58836629 -55.62100272 48.32267393 -57 52 C-38.19 52 -19.38 52 0 52 C0 55.96 0 59.92 0 64 C-6.66101695 64 -6.66101695 64 -9.5625 61.9375 C-12.705645 59.77891109 -12.705645 59.77891109 -15.5 60.0625 C-17.49275705 60.80978389 -19.44366952 61.66836552 -21.375 62.5625 C-25.38899734 64.15425757 -27.72422282 64.52509544 -32 64 C-34.10762125 63.03283155 -36.1182851 61.94114154 -38.15625 60.8359375 C-40.06126672 59.81126065 -40.06126672 59.81126065 -42.625 60.0625 C-45.5122149 61.20219009 -48.23725862 62.58793218 -51 64 C-51.66 64 -52.32 64 -53 64 C-52.34 65.65 -51.68 67.3 -51 69 C-49.9790625 68.7834375 -49.9790625 68.7834375 -48.9375 68.5625 C-47.968125 68.376875 -46.99875 68.19125 -46 68 C-44.3603125 67.5978125 -44.3603125 67.5978125 -42.6875 67.1875 C-38.35989358 66.96745222 -36.58373917 68.02890261 -32.90625 70.05859375 C-30.05076214 71.46878345 -28.12512161 71.53193559 -25 71 C-23.18797976 70.04239477 -21.46493597 68.97846945 -19.71875 67.90625 C-16.95387966 66.44840927 -15.05493781 66.4908437 -12 67 C-10.15207144 67.9177908 -8.4259414 68.94476908 -6.6796875 70.04296875 C-4.5211814 71.27281525 -2.45194058 71.70279508 0 72 C0 74.31 0 76.62 0 79 C-5.625 79.25 -5.625 79.25 -9 77 C-11.83665329 76.68193122 -11.83665329 76.68193122 -14.9375 76.75 C-16.49791016 76.74226562 -16.49791016 76.74226562 -18.08984375 76.734375 C-20.98290603 76.99843975 -22.4943143 77.63809865 -25 79 C-31.1760667 79.44114762 -31.1760667 79.44114762 -33.875 77.99609375 C-36.54857033 76.74285766 -38.55900917 76.76806195 -41.5 76.8125 C-42.4384375 76.81894531 -43.376875 76.82539062 -44.34375 76.83203125 C-46.70620585 76.98142184 -48.73716665 77.33289111 -51 78 C-51 79.32 -51 80.64 -51 82 C-34.17 82 -17.34 82 0 82 C0 84.31 0 86.62 0 89 C-14.19 89.33 -28.38 89.66 -43 90 C-39.37 90.99 -35.74 91.98 -32 93 C-28.6415575 93.98823136 -25.28761827 94.9846524 -21.9375 96 C-20.70676758 96.37125 -20.70676758 96.37125 -19.45117188 96.75 C-17.80552845 97.24640776 -16.16017844 97.74378937 -14.51513672 98.2421875 C-12.75263822 98.77322956 -10.98848947 99.29881092 -9.22314453 99.8203125 C-8.3257959 100.08585938 -7.42844727 100.35140625 -6.50390625 100.625 C-5.68865479 100.86476563 -4.87340332 101.10453125 -4.03344727 101.3515625 C-2 102 -2 102 0 103 C0 105.31 0 107.62 0 110 C-6.86571781 108.57464029 -13.49534756 106.70988005 -20.1875 104.625 C-22.22251497 104.00214238 -24.25767094 103.37974527 -26.29296875 102.7578125 C-29.65475495 101.72605942 -33.01152744 100.68100848 -36.36328125 99.6171875 C-37.56339844 99.24851562 -38.76351562 98.87984375 -40 98.5 C-41.010625 98.1803125 -42.02125 97.860625 -43.0625 97.53125 C-47.6050083 96.70973254 -51.52464565 97.05426003 -55.4375 99.5625 C-57.65187308 103.016922 -57.83695083 106.00397005 -57 110 C-55.12984906 112.43119623 -53.71861655 113.64069173 -51 115 C-49.36664808 115.11872573 -47.72872646 115.17709092 -46.09130859 115.20532227 C-44.55994766 115.2352401 -44.55994766 115.2352401 -42.99765015 115.26576233 C-41.89240997 115.28247482 -40.7871698 115.29918732 -39.6484375 115.31640625 C-38.5192691 115.33718735 -37.39010071 115.35796844 -36.22671509 115.37937927 C-32.60954028 115.44491335 -28.99229119 115.50377774 -25.375 115.5625 C-22.92707556 115.60568154 -20.47915872 115.64929571 -18.03125 115.69335938 C-12.0209125 115.80059867 -6.01050065 115.90235787 0 116 C0 118.31 0 120.62 0 123 C-14.19 123 -28.38 123 -43 123 C-38.04566315 131.41940034 -38.04566315 131.41940034 -30 135 C-24.83064298 135.58769274 -19.69440997 135.69754353 -14.5 135.75 C-13.09110984 135.77820374 -11.68225319 135.80813723 -10.2734375 135.83984375 C-6.84890123 135.91021093 -3.42503295 135.96307585 0 136 C0 138.31 0 140.62 0 143 C-4.10751239 143.09985537 -8.21454209 143.17192603 -12.32299805 143.21972656 C-13.71667814 143.23967995 -15.1102763 143.26685319 -16.50366211 143.30175781 C-28.26331698 143.58868158 -36.45543447 142.06334166 -45.30078125 134 C-47.13751403 131.8381444 -48.00425167 129.95623356 -49 127.3125 C-50.37637936 123.68721509 -51.47172439 122.33489339 -55 120.6875 C-56.04027344 120.25630859 -56.04027344 120.25630859 -57.1015625 119.81640625 C-60.87525683 118.19356239 -62.58581324 115.91121087 -64.25 112.25 C-65.54163678 106.65290729 -65.97403571 102.75326427 -63.125 97.625 C-61 95 -61 95 -59 93 C-58.54220195 89.08165565 -58.67600734 85.12948245 -58.6875 81.1875 C-58.67138672 80.09373047 -58.65527344 78.99996094 -58.63867188 77.87304688 C-58.63802734 76.81537109 -58.63738281 75.75769531 -58.63671875 74.66796875 C-58.63373779 73.70141357 -58.63075684 72.7348584 -58.62768555 71.73901367 C-59.06256273 68.53974344 -60.28916794 66.70210245 -62 64 C-62 63.01 -62 62.02 -62 61 C-61.01 60.505 -61.01 60.505 -60 60 C-61.98 59.67 -63.96 59.34 -66 59 C-64.8394951 43.33318388 -55.7310538 30.91865964 -45 20 C-44.38640625 19.37351562 -43.7728125 18.74703125 -43.140625 18.1015625 C-31.94104482 7.52418122 -15.5317401 -0.36120326 0 0 Z " fill="#A096AF" transform="translate(1056,911)"/>
<path d="M0 0 C0.82421074 -0.00538554 1.64842148 -0.01077108 2.4976083 -0.01631981 C5.25743835 -0.03061912 8.01679008 -0.02349081 10.77664185 -0.01637268 C12.75614813 -0.02207526 14.73565113 -0.02903908 16.71514893 -0.03717041 C22.09123178 -0.05513042 27.46715166 -0.05392794 32.84325552 -0.04822803 C37.3313614 -0.04513994 41.8194358 -0.05122447 46.3075372 -0.05726677 C56.89622365 -0.07132005 67.48482944 -0.06974433 78.07351685 -0.05836487 C88.99636247 -0.04688566 99.91896252 -0.06095426 110.84177577 -0.08776134 C120.22026991 -0.10991633 129.59868695 -0.11655608 138.9772054 -0.11068493 C144.5782866 -0.10731335 150.17921042 -0.10974379 155.78026962 -0.12693596 C161.04822303 -0.14239945 166.31581267 -0.13845595 171.58375168 -0.11963081 C173.51588369 -0.11594315 175.44804261 -0.11905855 177.38014984 -0.1295166 C180.02061676 -0.14271627 182.65987767 -0.13118835 185.30029297 -0.11352539 C186.06246404 -0.1231304 186.8246351 -0.1327354 187.60990226 -0.14263147 C193.06949738 -0.06763907 196.27077523 1.27690184 200.77713013 4.38768005 C203.39540137 7.90598204 204.00756461 10.60303895 203.77713013 14.88768005 C203.05696005 19.67802483 201.20854157 22.03996157 197.77713013 25.38768005 C194.60130382 26.97559321 191.2355186 26.79787746 187.77713013 26.38768005 C185.77713013 25.01268005 185.77713013 25.01268005 184.77713013 23.38768005 C184.77713013 22.72768005 184.77713013 22.06768005 184.77713013 21.38768005 C181.98854403 19.97757869 179.18308354 18.62124288 176.33963013 17.32518005 C175.59841919 16.98357849 174.85720825 16.64197693 174.09353638 16.2900238 C169.59856524 14.53903168 165.33711336 14.25931204 160.5418396 14.24050903 C158.65785461 14.22977608 158.65785461 14.22977608 156.73580933 14.21882629 C155.3514712 14.21598641 153.9671328 14.21327463 152.58279419 14.2106781 C151.118844 14.20440872 149.65489538 14.1977615 148.19094849 14.19076538 C143.39156185 14.1697808 138.5921751 14.15936893 133.79275513 14.1493988 C132.13713311 14.14534929 130.48151127 14.14123231 128.82588959 14.13704872 C121.04697803 14.11801015 113.26807588 14.10377576 105.48914552 14.09543675 C96.52395392 14.08566598 87.55900932 14.05934513 78.59390473 14.01893586 C71.65444047 13.98873516 64.71504687 13.97396418 57.77551818 13.97065574 C53.63532135 13.96830999 49.49538881 13.95941153 45.35526276 13.93419456 C41.45799648 13.91083896 37.56116712 13.90671037 33.66384888 13.91695595 C32.23888441 13.91744959 30.81389786 13.91118004 29.38899994 13.8973999 C19.20875992 13.804508 11.82588961 14.94867247 3.77713013 21.38768005 C3.11713013 21.38768005 2.45713013 21.38768005 1.77713013 21.38768005 C1.46775513 22.02705505 1.15838013 22.66643005 0.83963013 23.32518005 C-0.22286987 25.38768005 -0.22286987 25.38768005 -1.22286987 26.38768005 C-5.86197502 26.85945346 -8.87532505 27.13409885 -12.59786987 24.13768005 C-16.01877951 20.55386996 -17.0424334 18.98153554 -17.59786987 14.07518005 C-17.11588606 9.33567254 -15.98485731 7.26939213 -13.22286987 3.38768005 C-9.02838063 0.0824605 -5.14502182 -0.0403346 0 0 Z " fill="#FEFEFE" transform="translate(528.2228698730469,986.6123199462891)"/>
<path d="M0 0 C2.49845191 1.92876019 4.88217957 3.93292976 7.24609375 6.0234375 C8.14714844 6.78333984 8.14714844 6.78333984 9.06640625 7.55859375 C18.32116347 15.97396601 25.40148368 28.24297192 29.24609375 40.0234375 C29.63341675 41.18649414 29.63341675 41.18649414 30.02856445 42.37304688 C32.26768195 49.67678769 32.67019478 56.41671115 32.55859375 64.0234375 C32.56181641 65.12171875 32.56503906 66.22 32.56835938 67.3515625 C32.5026946 77.42812087 31.34432521 86.75212838 27.12109375 95.9609375 C26.8176001 96.63697021 26.51410645 97.31300293 26.20141602 98.00952148 C23.2059246 104.46938373 19.49083718 110.30800495 15.24609375 116.0234375 C14.78976562 116.66410156 14.3334375 117.30476563 13.86328125 117.96484375 C3.5247192 131.30592233 -15.6849007 141.99825158 -32.2578125 144.56640625 C-57.59428691 147.5074038 -78.20907852 143.43228632 -98.44140625 127.8359375 C-111.57159763 116.52080199 -121.55583862 102.03665893 -125.75390625 85.0234375 C-125.95628906 84.23582031 -126.15867187 83.44820312 -126.3671875 82.63671875 C-128.88825919 71.16327006 -128.92696688 58.3557969 -125.75390625 47.0234375 C-125.49738281 46.02183594 -125.24085938 45.02023437 -124.9765625 43.98828125 C-119.58899652 24.5884192 -107.06597726 7.06106187 -89.6875 -3.3515625 C-60.84272712 -19.32949262 -27.48707628 -19.7283129 0 0 Z M-104.9140625 18.48046875 C-118.03682729 36.61830289 -123.62692886 56.29268078 -120.13671875 78.5390625 C-117.03340007 94.73953196 -109.57406029 107.68928099 -97.75390625 119.0234375 C-97.05136719 119.71050781 -96.34882812 120.39757813 -95.625 121.10546875 C-81.39684689 134.29884709 -63.12817283 139.74764913 -44.0546875 139.265625 C-23.89244063 138.36196983 -5.65609592 128.84169925 8.18359375 114.43359375 C21.53980405 98.82605254 27.87967753 78.58482376 26.46923828 58.22851562 C24.89579046 42.67995902 18.34751517 28.86729525 8.24609375 17.0234375 C7.62863281 16.20746094 7.01117187 15.39148437 6.375 14.55078125 C-5.05148043 0.98576687 -23.76036301 -6.5532037 -41.10449219 -8.19970703 C-65.72196819 -9.80300937 -88.89909803 -0.6494571 -104.9140625 18.48046875 Z " fill="#9F96AF" transform="translate(735.75390625,1579.9765625)"/>
<path d="M0 0 C20.46 0 40.92 0 62 0 C59.75443659 10.10503535 59.75443659 10.10503535 58.51953125 14.21484375 C58.10948853 15.59482544 58.10948853 15.59482544 57.69116211 17.00268555 C57.40120361 17.97117432 57.11124512 18.93966309 56.8125 19.9375 C53.91524002 29.73357907 51.20114829 39.56785394 48.57128906 49.4387207 C45.84075494 59.66272687 42.9455768 69.83614157 40 80 C34.06 80 28.12 80 22 80 C21.65710938 78.76378906 21.31421875 77.52757812 20.9609375 76.25390625 C20.43271226 74.35665368 19.90401405 72.45953277 19.375 70.5625 C18.93486572 68.98408325 18.93486572 68.98408325 18.48583984 67.3737793 C16.17486754 59.1197434 13.82117081 50.87846504 11.453125 42.640625 C10.81850957 40.43026077 10.18390681 38.2198929 9.54931641 36.00952148 C8.58850806 32.66340198 7.62648792 29.31765366 6.66082764 25.97293091 C5.74232152 22.79137917 4.82786686 19.60868608 3.9140625 16.42578125 C3.63516174 15.46412048 3.35626099 14.50245972 3.06890869 13.51165771 C2.68215973 12.16071014 2.68215973 12.16071014 2.28759766 10.7824707 C2.06222321 10.00071976 1.83684875 9.21896881 1.60464478 8.41352844 C0.91082727 5.64405394 0.46936909 2.81621455 0 0 Z " fill="#FEFEFE" transform="translate(858,1251)"/>
<path d="M0 0 C1.6621223 0.64712678 3.30788857 1.33738608 4.9375 2.0625 C9.97424805 4.24097078 13.7147194 4.42524421 19 3 C20.175625 2.484375 21.35125 1.96875 22.5625 1.4375 C27.6706226 -0.698624 31.69994056 -0.88279044 36.9921875 1.1484375 C40.55509487 3.34170775 41.93015831 5.42712357 44.0625 9 C48.19525221 15.89637178 51.82073325 17.84782778 59.5 19.8125 C66.73323171 21.99719781 66.73323171 21.99719781 69.25 24.625 C72.28966661 30.48721419 72.0744209 36.27837114 71.8125 42.75 C71.76615969 48.0420639 74.13385809 50.91083137 77.6015625 54.79296875 C81.4651616 59.37984825 82.85934634 62.63110918 82.453125 68.6875 C81.63840629 72.84537482 79.44235195 75.64207841 76.3984375 78.5078125 C72.3743038 82.76080689 71.72412971 86.00781626 71.78222656 91.69433594 C71.84312961 93.28999576 71.93020339 94.88491415 72.04589844 96.47753906 C72.36374145 101.89479044 71.66545848 104.69650434 68 109 C63.82636525 111.98116768 60.49522909 113.14597075 55.5 114.1875 C48.95593949 115.8190329 46.54589955 119.54620174 43 125 C37.82113821 131.87613582 37.82113821 131.87613582 34 133 C29.37122596 133.55545289 26.2001914 132.80008203 22 131 C14.18328888 127.70875321 9.30220359 129.16057865 1.64453125 132.09375 C-1.80035454 133.27427216 -4.39710086 133.56516065 -8 133 C-13.96934394 129.65558611 -16.45987929 125.53324511 -19.875 119.77734375 C-23.48501019 115.05911352 -27.93238101 113.8647795 -33.5625 112.6875 C-38.96776035 111.30493 -41.02082467 109.66737468 -44 105 C-45.38038156 102.23923687 -45.00360165 99.70118054 -44.98632812 96.67553711 C-45.04591603 85.55920096 -47.39249296 80.06103149 -55 72 C-56.63812634 68.72374733 -56.66448304 65.5273492 -56 62 C-54.74581085 59.81027563 -53.33553269 57.9756521 -51.703125 56.0546875 C-45.9737553 49.14264974 -45.47022523 44.7449096 -45.59960938 36.07617188 C-45.53060933 30.99046282 -44.91524261 27.39829844 -41.64282227 23.38793945 C-38.58535898 20.80483962 -35.01181641 20.19437009 -31.1875 19.3125 C-24.61598623 17.5022488 -20.9997763 15.90534201 -17.25 9.875 C-16.73953125 8.86179687 -16.2290625 7.84859375 -15.703125 6.8046875 C-12.07753118 0.83409952 -6.75811094 -1.26039369 0 0 Z M-9.0625 8.4375 C-11.36321784 11.48038489 -13.42631191 14.63805153 -15.4375 17.87890625 C-19.62133374 23.55846055 -25.21475473 24.28283435 -31.78515625 25.9375 C-34.94699925 26.98248335 -36.00813497 27.46861022 -38 30 C-38.34869562 33.71085551 -38.43636969 37.32321401 -38.43945312 41.04492188 C-38.64574943 49.57420698 -41.78279323 55.26836765 -47.828125 61.1640625 C-49.59016913 63.9245983 -49.42804078 65.78969415 -49 69 C-47.36450497 71.67461244 -47.36450497 71.67461244 -45.125 74.0625 C-38.78207371 81.25797015 -38.66486101 86.98814181 -38.609375 96.2265625 C-38.59527399 101.00733224 -38.59527399 101.00733224 -36.3203125 105.0078125 C-33.63593925 106.15567581 -31.12301579 106.72898677 -28.25 107.25 C-17.9741709 109.67519568 -13.34123545 116.38748887 -8 125 C-6.94417544 126.25964039 -6.94417544 126.25964039 -4.5625 126.3125 C-1.15818051 126.01387548 0.74013535 125.35432897 3.8125 124 C9.6376892 121.5619537 14.50338333 120.70356213 20.5390625 122.94140625 C22.1938056 123.65879488 23.83216125 124.41608063 25.4453125 125.22265625 C29.08691535 126.33072807 31.35084219 126.06774685 35 125 C36.89003445 122.83570187 38.20857797 121.05914748 39.625 118.625 C44.66751211 110.25735309 49.85297899 108.58499433 59.0390625 106.0625 C61.99896694 105.0003707 63.08877289 104.40010513 65 102 C65.34869562 98.28914449 65.43636969 94.67678599 65.43945312 90.95507812 C65.60255135 84.21181031 67.36636517 79.1307704 71.73828125 73.93359375 C72.25777344 73.43988281 72.77726562 72.94617187 73.3125 72.4375 C75.63811574 69.8152496 75.97821627 69.23962105 76.3125 65.5625 C74.79184435 61.4350061 72.76067911 59.08068336 69.69140625 55.9921875 C64.93257931 50.38710265 65.65123312 43.7428144 65.609375 36.7734375 C65.59825259 32.01618808 65.59825259 32.01618808 63.35546875 28.02734375 C60.50780171 26.78532645 57.69701389 25.96198125 54.6875 25.1875 C45.36512111 22.41372731 41.2449571 17.96588072 36.1640625 9.85546875 C35.13287805 8.05847757 35.13287805 8.05847757 34 7 C29.05620701 6.59642506 25.84086716 7.46700953 21.3046875 9.3203125 C15.53913022 11.02066329 8.67669283 11.09623985 3.1875 8.5 C-1.11303044 6.47622097 -4.97108527 5.58590792 -9.0625 8.4375 Z " fill="#9F95AF" transform="translate(675,1579)"/>
<path d="M0 0 C6.46210049 4.01395857 11.29134458 8.66580673 13.609375 16.12109375 C15.1533354 23.95526321 14.62210302 31.03475233 10.64453125 38.00390625 C6.26865795 44.12800981 0.53054787 48.82897854 -6.96875 50.26171875 C-16.19039157 51.13586635 -22.75811481 50.01340791 -30.09375 44.13671875 C-36.37506465 38.25867916 -39.23518802 33.0240647 -39.59375 24.32421875 C-39.23308705 15.51644986 -36.53751443 9.34174196 -30.09375 3.32421875 C-21.09829522 -3.76513595 -10.35775125 -5.34775201 0 0 Z " fill="#FDFDFD" transform="translate(329.96875,1243.73828125)"/>
<path d="M0 0 C1.28267761 -0.00852997 2.56535522 -0.01705994 3.88690186 -0.02584839 C5.30116284 -0.02514942 6.71542373 -0.02422639 8.12968445 -0.02310181 C9.62481522 -0.02908873 11.1199429 -0.03589466 12.61506653 -0.04345703 C16.67097994 -0.06110857 20.72680893 -0.06581208 24.78275704 -0.0670886 C27.31878487 -0.06851135 29.85479132 -0.07278332 32.39081383 -0.07808304 C41.24405146 -0.09658121 50.09722891 -0.104754 58.95048523 -0.10317993 C67.19332808 -0.1019789 75.43590892 -0.12307409 83.67868549 -0.15466726 C90.76336625 -0.1808506 97.84796156 -0.19154635 104.93269032 -0.19026911 C109.16058674 -0.18976004 113.38825032 -0.19541265 117.6160984 -0.21662521 C121.59463597 -0.23604219 125.57271942 -0.23610875 129.55127335 -0.22159195 C131.0072884 -0.21950695 132.46333213 -0.22418637 133.91929817 -0.23631287 C142.96607079 -0.30675129 149.71088032 -0.09515057 156.73783875 6.11898804 C157.20190125 6.70422241 157.66596375 7.28945679 158.14408875 7.89242554 C158.62877625 8.48281616 159.11346375 9.07320679 159.61283875 9.68148804 C160.64408875 11.26742554 160.64408875 11.26742554 160.64408875 13.26742554 C100.91408875 13.26742554 41.18408875 13.26742554 -20.35591125 13.26742554 C-18.08818428 7.59810811 -18.08818428 7.59810811 -15.04341125 5.07992554 C-14.46977844 4.59137085 -13.89614563 4.10281616 -13.30513 3.59945679 C-8.98035103 0.6440467 -5.18346559 0.01560563 0 0 Z " fill="#FEFEFE" transform="translate(551.3559112548828,966.7325744628906)"/>
<path d="M0 0 C3.52431767 1.00694791 6.01454309 2.01060434 9 4.1875 C12.75649228 6.45704742 13.80968343 5.96699613 18 5 C24.93005268 4.34492039 29.35070379 4.81952081 35 9 C38.87163587 13.07540618 38.87163587 13.07540618 39.26953125 15.94140625 C40.37850808 19.06670458 42.48837433 19.81783587 45.3125 21.4375 C50.67069029 24.5207844 54.77556671 28.08346608 57 34 C57.1953125 36.578125 57.1953125 36.578125 57.125 39.25 C57.10695312 40.14203125 57.08890625 41.0340625 57.0703125 41.953125 C57.04710937 42.62859375 57.02390625 43.3040625 57 44 C57.61875 44.2475 58.2375 44.495 58.875 44.75 C61.46010893 46.27065231 62.02570068 47.18481353 63 50 C63.32735647 53.01250826 63.43995157 56.00005458 63.55859375 59.02734375 C64.05166945 62.34796859 65.22365946 64.1913359 67 67 C67.71929582 73.26814931 66.65239246 77.80236458 63 83 C62.113125 83.66 61.22625 84.32 60.3125 85 C57.04687136 87.37335956 57.04687136 87.37335956 57 95 C38.19 95 19.38 95 0 95 C0 92.69 0 90.38 0 88 C16.5 88 33 88 50 88 C45.63231499 57.42620492 35.8707293 33.68319553 11 14 C8.97272024 12.76768146 6.93111352 11.5585833 4.875 10.375 C2.09765625 8.70703125 2.09765625 8.70703125 0 7 C-0.6875 3.0625 -0.6875 3.0625 0 0 Z " fill="#9F95AE" transform="translate(187,1537)"/>
<path d="M0 0 C4.29 0 8.58 0 13 0 C13 26.4 13 52.8 13 80 C8.71 80 4.42 80 0 80 C0 53.6 0 27.2 0 0 Z " fill="#FEFEFE" transform="translate(615,1244)"/>
<path d="M0 0 C27.06 0 54.12 0 82 0 C80 11 80 11 79 13 C53.92 13 28.84 13 3 13 C0 4 0 4 0 0 Z " fill="#FEFEFE" transform="translate(848,1231)"/>
<path d="M0 0 C6.46210049 4.01395857 11.29134458 8.66580673 13.609375 16.12109375 C15.1533354 23.95526321 14.62210302 31.03475233 10.64453125 38.00390625 C6.26865795 44.12800981 0.53054787 48.82897854 -6.96875 50.26171875 C-16.19039157 51.13586635 -22.75811481 50.01340791 -30.09375 44.13671875 C-36.37506465 38.25867916 -39.23518802 33.0240647 -39.59375 24.32421875 C-39.23308705 15.51644986 -36.53751443 9.34174196 -30.09375 3.32421875 C-21.09829522 -3.76513595 -10.35775125 -5.34775201 0 0 Z M-26.96875 9.26171875 C-29.37396237 12.20114869 -29.37396237 12.20114869 -30.96875 15.26171875 C-31.38125 15.88046875 -31.79375 16.49921875 -32.21875 17.13671875 C-34.03611764 22.28592706 -33.35237179 26.93371352 -31.40625 31.88671875 C-28.72866882 37.38430565 -24.81117417 40.61610476 -19.59375 43.63671875 C-13.14108618 45.17306728 -8.52953118 44.94585358 -2.65625 41.63671875 C2.47931954 38.26351081 5.0719993 35.13947086 7.03125 29.26171875 C7.60139656 22.99010655 7.35508332 17.76681768 4.03125 12.26171875 C-1.1279911 6.9969717 -4.62368368 4.11203398 -12.09375 3.88671875 C-18.34713757 3.94199731 -22.39262469 4.93417308 -26.96875 9.26171875 Z " fill="#9F96AF" transform="translate(329.96875,1243.73828125)"/>
<path d="M0 0 C4.47870656 2.15937638 7.18198188 4.92952939 10 9 C11.59402391 13.78207174 11.96277713 18.43559362 10.1640625 23.2265625 C7.25823646 28.43364674 3.72177621 31.3046589 -2 33 C-6.27314625 33.78286649 -9.89191201 33.3279191 -13.75 31.3125 C-17.87836076 28.37501254 -20.39064632 25.82806104 -22 21 C-22.51578753 16.08733521 -22.57444169 12.1709773 -20.375 7.6875 C-19.199375 6.3571875 -19.199375 6.3571875 -18 5 C-17.175 4.05125 -16.35 3.1025 -15.5 2.125 C-11.03694954 -1.39306784 -5.34974796 -0.79364393 0 0 Z " fill="#FDFDFD" transform="translate(694,1629)"/>
<path d="M0 0 C6.24369876 3.61342894 11.64105821 9.29239828 13.625 16.3125 C14.67101777 24.03376276 13.01968624 29.90312132 8.625 36.3125 C4.31210263 41.17859561 -0.96214533 44.65543892 -7.5 45.62890625 C-14.36441118 45.99834505 -19.99559162 43.95839338 -25.390625 39.734375 C-30.86055269 34.63217354 -33.46156797 29.53718391 -33.875 22 C-33.64714048 15.08826108 -31.43805792 9.29527616 -26.4375 4.42578125 C-18.67185868 -1.64847986 -9.36662902 -4.39005193 0 0 Z M-24.375 12.3125 C-27.13066105 16.77576741 -26.88364855 21.21794068 -26.375 26.3125 C-24.58146165 31.59347404 -21.76500798 34.11145251 -17.375 37.3125 C-12.06575405 39.08224865 -7.3008605 39.01085764 -2.1875 36.8125 C2.25498593 34.3152446 4.80714352 31.05400585 6.625 26.3125 C7.53260538 21.63793068 7.14559004 17.73518909 4.9375 13.5 C2.28300926 9.84110736 -0.32957807 7.33521096 -4.375 5.3125 C-13.17838432 4.1206572 -18.73736894 5.20041159 -24.375 12.3125 Z " fill="#A096AF" transform="translate(698.375,1623.6875)"/>
<path d="M0 0 C2.31 0 4.62 0 7 0 C7.00586624 0.54679413 7.01173248 1.09358826 7.01777649 1.6569519 C7.08158104 7.33463519 7.16596575 13.01174479 7.26245117 18.68896484 C7.2957596 20.80933074 7.3237729 22.92978657 7.34643555 25.05029297 C7.37987303 28.09381535 7.43218253 31.13650912 7.48828125 34.1796875 C7.49467117 35.13181122 7.5010611 36.08393494 7.50764465 37.06491089 C7.53733589 38.38605392 7.53733589 38.38605392 7.56762695 39.73388672 C7.57873001 40.51110077 7.58983307 41.28831482 7.60127258 42.08908081 C7.85203989 44.40778655 7.85203989 44.40778655 11 46 C14.60867549 45.84172822 14.60867549 45.84172822 18 45 C19.1415622 42.7168756 19.15334372 41.36520695 19.20532227 38.82568359 C19.22526749 37.96494232 19.24521271 37.10420105 19.26576233 36.21737671 C19.28247482 35.28712677 19.29918732 34.35687683 19.31640625 33.3984375 C19.33718735 32.44683746 19.35796844 31.49523743 19.37937927 30.51480103 C19.44488133 27.46827568 19.5037628 24.42166257 19.5625 21.375 C19.60568459 19.31249084 19.64929886 17.24999063 19.69335938 15.1875 C19.8005634 10.12509046 19.90182902 5.06259245 20 0 C22.31 0 24.62 0 27 0 C27.07432654 6.01397009 27.12868588 12.02767096 27.16479492 18.04199219 C27.17985288 20.08663594 27.20030357 22.13124755 27.22631836 24.17578125 C27.26283311 27.11987252 27.27975651 30.06353557 27.29296875 33.0078125 C27.30845261 33.9174173 27.32393646 34.82702209 27.33988953 35.76419067 C27.34125289 40.94129038 26.91241879 44.5298161 24 49 C20.59132439 52.07612189 18.34769509 53.87041393 13.75 54.3125 C8.38020383 53.86501699 5.70506805 51.58413438 1.84863281 48.0012207 C-0.86103998 43.60211775 -0.49974491 39.73419311 -0.390625 34.66796875 C-0.38496521 33.67622147 -0.37930542 32.68447418 -0.37347412 31.66267395 C-0.35113344 28.50378586 -0.30094038 25.34604364 -0.25 22.1875 C-0.22993206 20.04233412 -0.2116818 17.89715041 -0.1953125 15.75195312 C-0.15127645 10.50091297 -0.0843875 5.25053836 0 0 Z " fill="#A197B0" transform="translate(421,1528)"/>
<path d="M0 0 C4.29 0 8.58 0 13 0 C13.22306375 7.54374901 13.386072 15.08556524 13.49438477 22.63183594 C13.5395487 25.19662934 13.60089601 27.76119224 13.67895508 30.32519531 C13.78857927 34.01945888 13.83926757 37.71065261 13.87890625 41.40625 C13.92535782 42.5461438 13.97180939 43.6860376 14.01966858 44.86047363 C14.02261637 49.54602338 13.97666802 52.71792656 11.07711792 56.52416992 C7.42428264 59.89850898 4.87369112 61.78157722 0 63 C0 42.21 0 21.42 0 0 Z " fill="#FEFEFE" transform="translate(635,1258)"/>
<path d="M0 0 C4.29 0 8.58 0 13 0 C13 20.79 13 41.58 13 63 C7.51922395 60.80768958 3.52764308 58.80662791 0 54 C-1.07338069 49.81163954 -0.93632503 45.80442053 -0.78125 41.50390625 C-0.76993042 40.31522446 -0.75861084 39.12654266 -0.74694824 37.90184021 C-0.70230977 34.12039257 -0.60195563 30.3427935 -0.5 26.5625 C-0.45985749 23.99289345 -0.42335809 21.42322724 -0.390625 18.85351562 C-0.30261255 12.56753677 -0.16463793 6.28441991 0 0 Z " fill="#FEFEFE" transform="translate(595,1258)"/>
<path d="M0 0 C6.6 0 13.2 0 20 0 C20.09202984 4.60916107 20.1715972 9.21511369 20.21972656 13.82446289 C20.23979558 15.39097923 20.26705751 16.95742109 20.30175781 18.52368164 C20.35048754 20.78029794 20.3730147 23.03592083 20.390625 25.29296875 C20.41127014 25.98899704 20.43191528 26.68502533 20.45318604 27.40214539 C20.45483032 30.99581935 20.08015358 32.87681281 18.10058594 35.91918945 C15.26709991 38.7260004 13.58013342 39.20490173 9.6875 39.375 C8.92824219 39.42398437 8.16898437 39.47296875 7.38671875 39.5234375 C3.71117535 38.71734451 2.33082087 36.89978585 0 34 C-0.43948867 31.14398524 -0.59019987 28.90946543 -0.48828125 26.07421875 C-0.48120651 25.32662796 -0.47413177 24.57903717 -0.46684265 23.80879211 C-0.43897645 21.43398598 -0.37626132 19.06158649 -0.3125 16.6875 C-0.28740668 15.07229982 -0.26459531 13.45706246 -0.24414062 11.84179688 C-0.19343536 7.89287099 -0.09559439 3.94911038 0 0 Z " fill="#FEFEFE" transform="translate(411,1629)"/>
<path d="M0 0 C34.65 0 69.3 0 105 0 C105.495 2.97 105.495 2.97 106 6 C70.36 6 34.72 6 -2 6 C-1.34 4.02 -0.68 2.04 0 0 Z " fill="#FEFEFE" transform="translate(265,1198)"/>
<path d="M0 0 C1.29550781 0.00966797 2.59101563 0.01933594 3.92578125 0.02929688 C5.28906854 0.05436092 6.65234979 0.07975573 8.015625 0.10546875 C9.39451684 0.12052357 10.77342435 0.13421058 12.15234375 0.14648438 C15.52383415 0.18184966 18.89453154 0.23120971 22.265625 0.29296875 C22.265625 2.27296875 22.265625 4.25296875 22.265625 6.29296875 C13.685625 6.29296875 5.105625 6.29296875 -3.734375 6.29296875 C-3.734375 17.51296875 -3.734375 28.73296875 -3.734375 40.29296875 C-6.044375 40.29296875 -8.354375 40.29296875 -10.734375 40.29296875 C-10.8332114 35.07858832 -10.90582706 29.86475232 -10.95410156 24.6496582 C-10.97422403 22.87547306 -11.0015253 21.10135429 -11.03613281 19.32739258 C-11.08462492 16.77799108 -11.10733653 14.2294658 -11.125 11.6796875 C-11.14564514 10.88584152 -11.16629028 10.09199554 -11.18756104 9.27409363 C-11.18976879 3.862627 -11.18976879 3.862627 -9.13085938 1.28710938 C-5.95752011 -0.02929624 -3.43514674 -0.0451993 0 0 Z " fill="#FBFBFC" transform="translate(324.734375,1150.70703125)"/>
<path d="M0 0 C4.29 0 8.58 0 13 0 C13 6.6 13 13.2 13 20 C8.71 20 4.42 20 0 20 C0 13.4 0 6.8 0 0 Z " fill="#FFFFFF" transform="translate(655,1271)"/>
<path d="M0 0 C4.29 0 8.58 0 13 0 C13 6.6 13 13.2 13 20 C8.71 20 4.42 20 0 20 C0 13.4 0 6.8 0 0 Z " fill="#FFFFFF" transform="translate(575,1271)"/>
<path d="M0 0 C4.29 0 8.58 0 13 0 C13 13.2 13 26.4 13 40 C12.01 40 11.02 40 10 40 C10 31.09 10 22.18 10 13 C6.7 13 3.4 13 0 13 C0 8.71 0 4.42 0 0 Z " fill="#FFFFFF" transform="translate(665,1251)"/>
<path d="M0 0 C4.29 0 8.58 0 13 0 C13 4.29 13 8.58 13 13 C9.7 13 6.4 13 3 13 C3 21.91 3 30.82 3 40 C2.01 40 1.02 40 0 40 C0 26.8 0 13.6 0 0 Z " fill="#FFFFFF" transform="translate(565,1251)"/>
<path d="M0 0 C4.29 0 8.58 0 13 0 C13 8.91 13 17.82 13 27 C12.01 27 11.02 27 10 27 C10 22.38 10 17.76 10 13 C6.7 13 3.4 13 0 13 C0 8.71 0 4.42 0 0 Z " fill="#FDFDFD" transform="translate(625,1224)"/>
<path d="M0 0 C4.29 0 8.58 0 13 0 C13 4.29 13 8.58 13 13 C9.7 13 6.4 13 3 13 C3 17.62 3 22.24 3 27 C2.01 27 1.02 27 0 27 C0 18.09 0 9.18 0 0 Z " fill="#FDFDFD" transform="translate(605,1224)"/>
<path d="M0 0 C4.29 0 8.58 0 13 0 C13 8.58 13 17.16 13 26 C12.01 26 11.02 26 10 26 C10 21.71 10 17.42 10 13 C6.7 13 3.4 13 0 13 C0 8.71 0 4.42 0 0 Z " fill="#FFFFFF" transform="translate(645,1238)"/>
<path d="M0 0 C4.29 0 8.58 0 13 0 C13 4.29 13 8.58 13 13 C9.7 13 6.4 13 3 13 C3 17.29 3 21.58 3 26 C2.01 26 1.02 26 0 26 C0 17.42 0 8.84 0 0 Z " fill="#FFFFFF" transform="translate(585,1238)"/>
<path d="M0 0 C4.62 0 9.24 0 14 0 C14 2.31 14 4.62 14 7 C9.38 7 4.76 7 0 7 C0 4.69 0 2.38 0 0 Z " fill="#A79EB5" transform="translate(882,1197)"/>
<path d="M0 0 C1.79133978 -0.05391993 3.58313899 -0.09275571 5.375 -0.125 C6.37273437 -0.14820313 7.37046875 -0.17140625 8.3984375 -0.1953125 C11 0 11 0 13 2 C12.46428571 5.53571429 12.46428571 5.53571429 11 7 C9.35769636 7.1245486 7.70947724 7.17568524 6.0625 7.1875 C5.16660156 7.20167969 4.27070312 7.21585938 3.34765625 7.23046875 C1 7 1 7 -1 5 C-0.625 2.375 -0.625 2.375 0 0 Z " fill="#A59CB4" transform="translate(1030,1612)"/>
<path d="M0 0 C1.50046875 0.00386719 1.50046875 0.00386719 3.03125 0.0078125 C4.0315625 0.00523438 5.031875 0.00265625 6.0625 0 C8.53125 0.1328125 8.53125 0.1328125 9.53125 1.1328125 C9.65625 3.6328125 9.65625 3.6328125 9.53125 6.1328125 C8.53125 7.1328125 8.53125 7.1328125 6.0625 7.265625 C4.56203125 7.26175781 4.56203125 7.26175781 3.03125 7.2578125 C2.0309375 7.26039062 1.030625 7.26296875 0 7.265625 C-2.46875 7.1328125 -2.46875 7.1328125 -3.46875 6.1328125 C-3.59375 3.6328125 -3.59375 3.6328125 -3.46875 1.1328125 C-2.46875 0.1328125 -2.46875 0.1328125 0 0 Z " fill="#A298B1" transform="translate(197.46875,1574.8671875)"/>
<path d="M0 0 C1.50046875 0.00386719 1.50046875 0.00386719 3.03125 0.0078125 C4.0315625 0.00523438 5.031875 0.00265625 6.0625 0 C8.53125 0.1328125 8.53125 0.1328125 9.53125 1.1328125 C9.65625 3.6328125 9.65625 3.6328125 9.53125 6.1328125 C8.53125 7.1328125 8.53125 7.1328125 6.02734375 7.23046875 C4.51333984 7.21306641 4.51333984 7.21306641 2.96875 7.1953125 C1.95683594 7.18628906 0.94492187 7.17726563 -0.09765625 7.16796875 C-0.88011719 7.15636719 -1.66257812 7.14476562 -2.46875 7.1328125 C-2.85008299 5.1414069 -3.18200582 3.14002173 -3.46875 1.1328125 C-2.46875 0.1328125 -2.46875 0.1328125 0 0 Z " fill="#A299B1" transform="translate(992.46875,1574.8671875)"/>
<path d="M0 0 C0.89589844 -0.01417969 1.79179688 -0.02835938 2.71484375 -0.04296875 C5.0625 0.1875 5.0625 0.1875 7.0625 2.1875 C6.6875 4.8125 6.6875 4.8125 6.0625 7.1875 C4.25007948 7.21437279 2.43754767 7.23383715 0.625 7.25 C-0.38433594 7.26160156 -1.39367187 7.27320313 -2.43359375 7.28515625 C-4.9375 7.1875 -4.9375 7.1875 -5.9375 6.1875 C-6.0625 3.6875 -6.0625 3.6875 -5.9375 1.1875 C-4.27188601 -0.47811399 -2.27787295 0.01634055 0 0 Z " fill="#A49AB2" transform="translate(1018.9375,1594.8125)"/>
<path d="M0 0 C1.65322266 0.01740234 1.65322266 0.01740234 3.33984375 0.03515625 C4.99693359 0.04869141 4.99693359 0.04869141 6.6875 0.0625 C7.54214844 0.07410156 8.39679687 0.08570313 9.27734375 0.09765625 C9.27734375 2.07765625 9.27734375 4.05765625 9.27734375 6.09765625 C5.31734375 6.09765625 1.35734375 6.09765625 -2.72265625 6.09765625 C-3.05265625 4.44765625 -3.38265625 2.79765625 -3.72265625 1.09765625 C-2.72265625 0.09765625 -2.72265625 0.09765625 0 0 Z " fill="#9E94AE" transform="translate(982.72265625,1608.90234375)"/>
<path d="M0 0 C4.875 4.75 4.875 4.75 6 7 C5.22265625 8.7265625 5.22265625 8.7265625 4.0625 10.625 C3.0415625 12.295625 3.0415625 12.295625 2 14 C-1.875 12.25 -1.875 12.25 -3 10 C-3.30343947 6.51044604 -3.39470082 4.62494296 -1.5 1.625 C-1.005 1.08875 -0.51 0.5525 0 0 Z " fill="#F6F5F8" transform="translate(915,1568)"/>
<path d="M0 0 C1.51400391 0.01740234 1.51400391 0.01740234 3.05859375 0.03515625 C4.07050781 0.04417969 5.08242188 0.05320312 6.125 0.0625 C7.29869141 0.07990234 7.29869141 0.07990234 8.49609375 0.09765625 C8.87828142 1.75380282 9.21004477 3.42222649 9.49609375 5.09765625 C8.49609375 6.09765625 8.49609375 6.09765625 5.7734375 6.1953125 C4.12021484 6.17791016 4.12021484 6.17791016 2.43359375 6.16015625 C1.32886719 6.15113281 0.22414063 6.14210938 -0.9140625 6.1328125 C-2.19603516 6.11541016 -2.19603516 6.11541016 -3.50390625 6.09765625 C-3.54662725 4.4315372 -3.54454457 2.7638274 -3.50390625 1.09765625 C-2.50390625 0.09765625 -2.50390625 0.09765625 0 0 Z " fill="#9E94AE" transform="translate(949.50390625,1611.90234375)"/>
<path d="M0 0 C1.65322266 0.01740234 1.65322266 0.01740234 3.33984375 0.03515625 C4.99693359 0.04869141 4.99693359 0.04869141 6.6875 0.0625 C7.54214844 0.07410156 8.39679688 0.08570313 9.27734375 0.09765625 C9.32006475 1.7637753 9.31798207 3.4314851 9.27734375 5.09765625 C8.27734375 6.09765625 8.27734375 6.09765625 5.7734375 6.1953125 C4.25943359 6.17791016 4.25943359 6.17791016 2.71484375 6.16015625 C1.70292969 6.15113281 0.69101563 6.14210938 -0.3515625 6.1328125 C-1.13402344 6.12121094 -1.91648438 6.10960937 -2.72265625 6.09765625 C-3.10484392 4.44150968 -3.43660727 2.77308601 -3.72265625 1.09765625 C-2.72265625 0.09765625 -2.72265625 0.09765625 0 0 Z " fill="#9D93AD" transform="translate(200.72265625,1608.90234375)"/>
<path d="M0 0 C1.65322266 0.01740234 1.65322266 0.01740234 3.33984375 0.03515625 C4.99693359 0.04869141 4.99693359 0.04869141 6.6875 0.0625 C7.54214844 0.07410156 8.39679687 0.08570313 9.27734375 0.09765625 C9.32006475 1.7637753 9.31798207 3.4314851 9.27734375 5.09765625 C8.27734375 6.09765625 8.27734375 6.09765625 5.7734375 6.1953125 C4.25943359 6.17791016 4.25943359 6.17791016 2.71484375 6.16015625 C1.70292969 6.15113281 0.69101562 6.14210938 -0.3515625 6.1328125 C-1.13402344 6.12121094 -1.91648437 6.10960937 -2.72265625 6.09765625 C-3.10484392 4.44150968 -3.43660727 2.77308601 -3.72265625 1.09765625 C-2.72265625 0.09765625 -2.72265625 0.09765625 0 0 Z " fill="#9E94AD" transform="translate(932.72265625,1598.90234375)"/>
<path d="M0 0 C3.96 0 7.92 0 12 0 C12.33 1.65 12.66 3.3 13 5 C12 6 12 6 9.53125 6.1328125 C8.03078125 6.12894531 8.03078125 6.12894531 6.5 6.125 C5.4996875 6.12757812 4.499375 6.13015625 3.46875 6.1328125 C1 6 1 6 0 5 C0 3.35 0 1.7 0 0 Z " fill="#9E94AD" transform="translate(1033,1559)"/>
<path d="M0 0 C0.66 0 1.32 0 2 0 C4.48386059 3.72579089 4.3804212 5.58711402 4 10 C2.5 12.9375 2.5 12.9375 1 15 C-1.33936818 12.87330165 -2.80653848 10.93775144 -4 8 C-4 5 -4 5 -2.5625 3.4375 C-2.046875 2.963125 -1.53125 2.48875 -1 2 C-0.67 1.34 -0.34 0.68 0 0 Z " fill="#F9F8FA" transform="translate(233,1568)"/>
<path d="M0 0 C1.51400391 0.01740234 1.51400391 0.01740234 3.05859375 0.03515625 C4.07050781 0.04417969 5.08242188 0.05320312 6.125 0.0625 C7.29869141 0.07990234 7.29869141 0.07990234 8.49609375 0.09765625 C8.87828142 1.75380282 9.21004477 3.42222649 9.49609375 5.09765625 C8.49609375 6.09765625 8.49609375 6.09765625 5.9921875 6.1953125 C4.47818359 6.17791016 4.47818359 6.17791016 2.93359375 6.16015625 C1.92167969 6.15113281 0.90976562 6.14210938 -0.1328125 6.1328125 C-0.91527344 6.12121094 -1.69773437 6.10960937 -2.50390625 6.09765625 C-2.88609392 4.44150968 -3.21785727 2.77308601 -3.50390625 1.09765625 C-2.50390625 0.09765625 -2.50390625 0.09765625 0 0 Z " fill="#9D93AC" transform="translate(969.50390625,1561.90234375)"/>
<path d="M0 0 C1.51400391 0.01740234 1.51400391 0.01740234 3.05859375 0.03515625 C4.07050781 0.04417969 5.08242188 0.05320312 6.125 0.0625 C7.29869141 0.07990234 7.29869141 0.07990234 8.49609375 0.09765625 C8.87828142 1.75380282 9.21004477 3.42222649 9.49609375 5.09765625 C8.49609375 6.09765625 8.49609375 6.09765625 5.9921875 6.1953125 C4.47818359 6.17791016 4.47818359 6.17791016 2.93359375 6.16015625 C1.92167969 6.15113281 0.90976562 6.14210938 -0.1328125 6.1328125 C-0.91527344 6.12121094 -1.69773437 6.10960937 -2.50390625 6.09765625 C-2.88609392 4.44150968 -3.21785727 2.77308601 -3.50390625 1.09765625 C-2.50390625 0.09765625 -2.50390625 0.09765625 0 0 Z " fill="#9D93AC" transform="translate(999.50390625,1548.90234375)"/>
<path d="M0 0 C0 3 0 3 -1.53125 4.82421875 C-2.50578125 5.74654297 -2.50578125 5.74654297 -3.5 6.6875 C-4.1496875 7.31011719 -4.799375 7.93273438 -5.46875 8.57421875 C-5.9740625 9.04472656 -6.479375 9.51523438 -7 10 C-8.32 9.34 -9.64 8.68 -11 8 C-10.67278832 4.94602429 -9.96883223 3.96883223 -7.75 1.75 C-4.79010327 -0.13357065 -3.42491198 -0.39141851 0 0 Z " fill="#F7F6F8" transform="translate(941,1548)"/>
<path d="M0 0 C4.4571874 0.26218749 6.51522698 0.57711289 9.9375 3.5625 C10.618125 4.366875 11.29875 5.17125 12 6 C11.67 6.99 11.34 7.98 11 9 C10.01 9.33 9.02 9.66 8 10 C5.03 7.36 2.06 4.72 -1 2 C-0.67 1.34 -0.34 0.68 0 0 Z " fill="#F7F6F8" transform="translate(208,1548)"/>
<path d="M0 0 C3.875 1.875 3.875 1.875 5 3 C4.8125 6.4375 4.8125 6.4375 4 10 C2.02 10.99 2.02 10.99 0 12 C-0.99 9.03 -1.98 6.06 -3 3 C-2.01 2.01 -1.02 1.02 0 0 Z " fill="#F8F8F9" transform="translate(239,1586)"/>
<path d="M0 0 C1.9375 0.8125 1.9375 0.8125 4 2 C5.39195915 6.17587745 3.82323219 8.13474776 2 12 C1.01 11.67 0.02 11.34 -1 11 C-2.50662097 7.98675805 -2.17770373 5.31713623 -2 2 C-1.34 1.34 -0.68 0.68 0 0 Z " fill="#FBFAFB" transform="translate(908,1586)"/>
<path d="M0 0 C1.32 0.33 2.64 0.66 4 1 C3.67 4.96 3.34 8.92 3 13 C0 12 0 12 -1.25 10.375 C-2.30894648 7.02166948 -1.70567392 4.40006525 -1 1 C-0.67 0.67 -0.34 0.34 0 0 Z " fill="#F4F3F6" transform="translate(904,1603)"/>
<path d="M0 0 C1.22975728 2.45951456 1.01468511 3.78256624 0.75 6.5 C0.68296875 7.2940625 0.6159375 8.088125 0.546875 8.90625 C0 11 0 11 -3 13 C-3.66 9.04 -4.32 5.08 -5 1 C-2 0 -2 0 0 0 Z " fill="#F9F9FA" transform="translate(246,1603)"/>
<path d="M0 0 C2.31 0 4.62 0 7 0 C7 1.98 7 3.96 7 6 C4.69 6 2.38 6 0 6 C0 4.02 0 2.04 0 0 Z " fill="#A096AF" transform="translate(902,1198)"/>
<path d="M0 0 C1.67542976 0.28604898 3.34385343 0.61781233 5 1 C5.625 2.875 5.625 2.875 6 5 C5.34 5.66 4.68 6.32 4 7 C1.375 6.625 1.375 6.625 -1 6 C-1.042721 4.33388095 -1.04063832 2.66617115 -1 1 C-0.67 0.67 -0.34 0.34 0 0 Z " fill="#A69DB5" transform="translate(666,1682)"/>
<path d="M0 0 C1.2065625 0.0309375 1.2065625 0.0309375 2.4375 0.0625 C3.0625 2.4375 3.0625 2.4375 3.4375 5.0625 C2.7775 5.7225 2.1175 6.3825 1.4375 7.0625 C-0.6875 6.6875 -0.6875 6.6875 -2.5625 6.0625 C-2.94468767 4.40635343 -3.27645102 2.73792976 -3.5625 1.0625 C-2.5625 0.0625 -2.5625 0.0625 0 0 Z " fill="#A79EB5" transform="translate(671.5625,1591.9375)"/>
<path d="M0 0 C1.67542976 0.28604898 3.34385343 0.61781233 5 1 C5.625 2.875 5.625 2.875 6 5 C5.34 5.66 4.68 6.32 4 7 C1.875 6.625 1.875 6.625 0 6 C-0.38218767 4.34385343 -0.71395102 2.67542976 -1 1 C-0.67 0.67 -0.34 0.34 0 0 Z " fill="#A79EB5" transform="translate(716,1622)"/>
<path d="M0 0 C1.67542976 0.28604898 3.34385343 0.61781233 5 1 C5 2.65 5 4.3 5 6 C3.34385343 6.38218767 1.67542976 6.71395102 0 7 C-1 6 -1 6 -1.125 3.5 C-1 1 -1 1 0 0 Z " fill="#A299B1" transform="translate(733,1655)"/>
<path d="M0 0 C1.67542976 0.28604898 3.34385343 0.61781233 5 1 C5 2.65 5 4.3 5 6 C3.34385343 6.38218767 1.67542976 6.71395102 0 7 C-1 6 -1 6 -1.125 3.5 C-1 1 -1 1 0 0 Z " fill="#A39AB2" transform="translate(720,1645)"/>
<path d="M0 0 C1.67542976 0.28604898 3.34385343 0.61781233 5 1 C5 2.65 5 4.3 5 6 C3.34385343 6.38218767 1.67542976 6.71395102 0 7 C-1 6 -1 6 -1.125 3.5 C-1 1 -1 1 0 0 Z " fill="#A59BB3" transform="translate(733,1635)"/>
<path d="M0 0 C1.2065625 0.0309375 1.2065625 0.0309375 2.4375 0.0625 C2.81968767 1.71864657 3.15145102 3.38707024 3.4375 5.0625 C2.4375 6.0625 2.4375 6.0625 -0.125 6.125 C-1.3315625 6.0940625 -1.3315625 6.0940625 -2.5625 6.0625 C-2.94468767 4.40635343 -3.27645102 2.73792976 -3.5625 1.0625 C-2.5625 0.0625 -2.5625 0.0625 0 0 Z " fill="#A49AB2" transform="translate(681.5625,1608.9375)"/>
<path d="M0 0 C1.2065625 0.0309375 1.2065625 0.0309375 2.4375 0.0625 C2.81968767 1.71864657 3.15145102 3.38707024 3.4375 5.0625 C2.4375 6.0625 2.4375 6.0625 -0.125 6.125 C-1.3315625 6.0940625 -1.3315625 6.0940625 -2.5625 6.0625 C-2.94468767 4.40635343 -3.27645102 2.73792976 -3.5625 1.0625 C-2.5625 0.0625 -2.5625 0.0625 0 0 Z " fill="#A39AB2" transform="translate(661.5625,1608.9375)"/>
<path d="M0 0 C1.2065625 0.0309375 1.2065625 0.0309375 2.4375 0.0625 C2.81968767 1.71864657 3.15145102 3.38707024 3.4375 5.0625 C2.4375 6.0625 2.4375 6.0625 -0.125 6.125 C-1.3315625 6.0940625 -1.3315625 6.0940625 -2.5625 6.0625 C-2.94468767 4.40635343 -3.27645102 2.73792976 -3.5625 1.0625 C-2.5625 0.0625 -2.5625 0.0625 0 0 Z " fill="#A59CB4" transform="translate(698.5625,1598.9375)"/>
<path d="M0 0 C2.125 0.375 2.125 0.375 4 1 C4.625 2.875 4.625 2.875 5 5 C4.34 5.66 3.68 6.32 3 7 C0.875 6.625 0.875 6.625 -1 6 C-1.625 4.125 -1.625 4.125 -2 2 C-1.34 1.34 -0.68 0.68 0 0 Z " fill="#A49BB3" transform="translate(717,1605)"/>
<path d="M0 0 C1.65 0.33 3.3 0.66 5 1 C5 2.65 5 4.3 5 6 C3.125 6.625 3.125 6.625 1 7 C0.34 6.34 -0.32 5.68 -1 5 C-0.625 2.375 -0.625 2.375 0 0 Z " fill="#A299B1" transform="translate(636,1642)"/>
<path d="M0 0 C1.65 0 3.3 0 5 0 C5.38218767 1.65614657 5.71395102 3.32457024 6 5 C5 6 5 6 2.4375 6.0625 C1.2309375 6.0315625 1.2309375 6.0315625 0 6 C0 4.02 0 2.04 0 0 Z " fill="#A096AF" transform="translate(699,1689)"/>
<path d="M0 0 C1.98 0 3.96 0 6 0 C6 1.65 6 3.3 6 5 C4.34385343 5.38218767 2.67542976 5.71395102 1 6 C0 5 0 5 -0.0625 2.4375 C-0.041875 1.633125 -0.02125 0.82875 0 0 Z " fill="#9F95AE" transform="translate(682,1676)"/>
<path d="M0 0 C1.65 0 3.3 0 5 0 C5.38218767 1.65614657 5.71395102 3.32457024 6 5 C5 6 5 6 2.4375 6.0625 C1.2309375 6.0315625 1.2309375 6.0315625 0 6 C0 4.02 0 2.04 0 0 Z " fill="#9E94AE" transform="translate(642,1619)"/>
<path d="M0 0 C1.65 0 3.3 0 5 0 C5.33 1.65 5.66 3.3 6 5 C4.34385343 5.38218767 2.67542976 5.71395102 1 6 C0 5 0 5 -0.0625 2.4375 C-0.041875 1.633125 -0.02125 0.82875 0 0 Z " fill="#9D93AC" transform="translate(652,1639)"/>
<path d="M0 0 C1.65 0.33 3.3 0.66 5 1 C4.67 2.65 4.34 4.3 4 6 C2.35 5.67 0.7 5.34 -1 5 C-0.67 3.35 -0.34 1.7 0 0 Z " fill="#9C92AC" transform="translate(713,1669)"/>
<path d="M0 0 C1.65 0.33 3.3 0.66 5 1 C4.67 2.65 4.34 4.3 4 6 C2.35 5.67 0.7 5.34 -1 5 C-0.67 3.35 -0.34 1.7 0 0 Z " fill="#9C92AC" transform="translate(653,1659)"/>
<path d="M0 0 C1.32 0 2.64 0 4 0 C3.49396008 2.16874252 3.00016187 3.99967627 2 6 C0.68 5.67 -0.64 5.34 -2 5 C-1.125 1.125 -1.125 1.125 0 0 Z " fill="#F4F3F6" transform="translate(924,1562)"/>
<path d="M0 0 C1.67542976 0.28604898 3.34385343 0.61781233 5 1 C4.67 2.65 4.34 4.3 4 6 C2.0625 5.1875 2.0625 5.1875 0 4 C-0.33 3.01 -0.66 2.02 -1 1 C-0.67 0.67 -0.34 0.34 0 0 Z " fill="#F9F8FA" transform="translate(222,1562)"/>
</svg>
